<?xml version="1.0" encoding="iso-8859-1"?>
<!-- Generator: Adobe Illustrator 21.0.0, SVG Export Plug-In . SVG Version: 6.00 Build 0)  -->
<svg xmlns="http://www.w3.org/2000/svg" xmlns:xlink="http://www.w3.org/1999/xlink" version="1.1" id="Capa_1" x="0px" y="0px" viewBox="0 0 512.002 512.002" style="enable-background:new 0 0 512.002 512.002;" xml:space="preserve" width="512" height="512">
<g>
	<g>
		<path style="fill-rule:evenodd;clip-rule:evenodd;fill:#FFCF8A;" d="M482.002,75.999H256.001V116h226.001c11,0,20,9,20,20V95.999    C502.002,84.999,493.002,75.999,482.002,75.999z"/>
		<path style="fill-rule:evenodd;clip-rule:evenodd;fill:#FFA754;" d="M482.002,116H256.001V75.999V56c0-11-9-20-20-20H30.001    c-10.999,0-20,9.001-20,20v420h492.001V136C502.002,125,493.002,116,482.002,116z"/>
	</g>
	<g>
		<path d="M482.002,66H266.001V56c0-16.542-13.458-30-30-30h-106c-5.522,0-10,4.477-10,10s4.478,10,10,10h106    c5.514,0,10,4.486,10,10v60c0,5.523,4.478,10,10,10h226.001c5.514,0,10,4.486,10,10v330H20V56c0-5.514,4.486-10,10.001-10h20    c5.522,0,10-4.477,10-10s-4.478-10-10-10h-20C13.458,26.001,0,39.458,0,56v420c0,5.523,4.478,10,10,10h492.002    c5.522,0,10-4.477,10-10V136V95.999C512.002,79.457,498.544,66,482.002,66z M482.002,106.001H266.001V86h216.001    c5.514,0,10,4.486,10,10v11.722C488.872,106.611,485.508,106.001,482.002,106.001z"/>
		<path d="M90.005,46.001c5.522,0,10-4.477,10-10s-4.478-10-10-10h-0.008c-5.522,0-9.996,4.477-9.996,10    S84.482,46.001,90.005,46.001z"/>
		<path d="M392.004,435.999c0,5.523,4.478,10,10,10h59.997c5.522,0,10-4.477,10-10s-4.478-10-10-10h-59.997    C396.481,425.999,392.004,430.476,392.004,435.999z"/>
		<path d="M362,425.999c-5.522,0-9.996,4.477-9.996,10s4.481,10,10.004,10s10-4.477,10-10s-4.478-10-10-10H362z"/>
		<path d="M46,196.003v40c0,16.542,13.458,30,30,30s30-13.458,30-30v-40c0-16.542-13.458-30-30-30S46,179.461,46,196.003z     M66,196.003c0-5.514,4.486-10,10-10s10,4.486,10,10v40c0,5.514-4.486,10-10,10s-10-4.486-10-10V196.003z"/>
		<path d="M126.001,186.003v70c0,5.523,4.478,10,10,10s10-4.477,10-10v-80c0-5.523-4.478-10-10-10h-10c-5.522,0-10,4.477-10,10    S120.479,186.003,126.001,186.003z"/>
		<path d="M226.001,236.003v-40c0-16.542-13.458-30-30-30s-30,13.458-30,30v40c0,16.542,13.458,30,30,30    S226.001,252.545,226.001,236.003z M206.001,236.003c0,5.514-4.486,10-10,10s-10-4.486-10-10v-40c0-5.514,4.486-10,10-10    s10,4.486,10,10V236.003z"/>
		<path d="M256.002,266.003c5.522,0,10-4.477,10-10v-80c0-5.523-4.478-10-10-10h-10c-5.522,0-10,4.477-10,10s4.478,10,10,10v70    C246.002,261.526,250.479,266.003,256.002,266.003z"/>
		<path d="M346.001,236.003v-40c0-16.542-13.458-30-30-30s-29.999,13.458-29.999,30v40c0,16.542,13.458,30,30,30    S346.001,252.545,346.001,236.003z M326.001,236.003c0,5.514-4.486,10-10,10s-9.999-4.486-9.999-10v-40c0-5.514,4.485-10,9.999-10    h0.001c5.514,0,9.999,4.486,9.999,10V236.003z"/>
		<path d="M376.003,266.003c5.522,0,10-4.477,10-10v-80c0-5.523-4.478-10-10-10h-10c-5.522,0-10,4.477-10,10s4.478,10,10,10v70    C366.003,261.526,370.48,266.003,376.003,266.003z"/>
		<path d="M436.002,166.003c-16.542,0-29.999,13.458-29.999,30v40c0,16.542,13.458,30,30,30s29.999-13.458,29.999-30v-40    C466.002,179.461,452.544,166.003,436.002,166.003z M446.002,236.003c0,5.514-4.486,10-10,10s-9.999-4.486-9.999-10v-40    c0-5.514,4.485-10,9.999-10h0.001c5.514,0,9.999,4.486,9.999,10V236.003z"/>
		<path d="M81,406.005c5.522,0,10-4.477,10-10v-80c0-5.523-4.478-10-10-10H71c-5.522,0-10,4.477-10,10s4.478,10,10,10v70    C71,401.528,75.478,406.005,81,406.005z"/>
		<path d="M141,406.005c16.542,0,29.999-13.458,29.999-30v-40c0-16.542-13.458-30-30-30S111,319.463,111,336.005v40    C111,392.547,124.458,406.005,141,406.005z M131,336.005c0-5.514,4.485-10,9.999-10H141c5.514,0,9.999,4.486,9.999,10v40    c0,5.514-4.486,10-10,10s-9.999-4.486-9.999-10V336.005z"/>
		<path d="M201.001,406.005c5.522,0,10-4.477,10-10v-80c0-5.523-4.478-10-10-10h-10c-5.522,0-10,4.477-10,10s4.478,10,10,10v70    C191.001,401.528,195.479,406.005,201.001,406.005z"/>
		<path d="M231.001,376.005c0,16.542,13.458,30,30,30s29.999-13.458,29.999-30v-40c0-16.542-13.458-30-30-30    s-29.999,13.458-29.999,30V376.005z M251.001,336.005c0-5.514,4.485-10,9.999-10h0.001c5.514,0,9.999,4.486,9.999,10v40    c0,5.514-4.486,10-10,10s-9.999-4.486-9.999-10V336.005z"/>
		<path d="M321.002,406.005c5.522,0,10-4.477,10-10v-80c0-5.523-4.478-10-10-10h-10c-5.522,0-10,4.477-10,10s4.478,10,10,10v70    C311.002,401.528,315.479,406.005,321.002,406.005z"/>
		<path d="M351.001,376.005c0,16.542,13.458,30,30,30s30-13.458,30-30v-40c0-16.542-13.458-30-30-30s-30,13.458-30,30V376.005z     M371.001,336.005c0-5.514,4.486-10,10-10s10,4.486,10,10v40c0,5.514-4.486,10-10,10s-10-4.486-10-10V336.005z"/>
		<path d="M441.002,406.005c5.522,0,10-4.477,10-10v-80c0-5.523-4.478-10-10-10h-9.999c-5.522,0-10,4.477-10,10    c0,5.522,4.477,10,9.999,10v70C431.002,401.528,435.479,406.005,441.002,406.005z"/>
	</g>
</g>















</svg>
