<svg width="512" height="512" viewBox="0 0 512 512" fill="none" xmlns="http://www.w3.org/2000/svg">
<g clip-path="url(#clip0)">
<path d="M464.691 28.009V165.699L47.567 356.903V28.009H464.691Z" fill="#E6E6E6"/>
<path d="M464.691 136.744V165.699L47.567 356.903V57.547C49.925 57.163 52.335 56.964 54.799 56.964H166.249C184.634 56.964 201.165 68.223 207.881 85.337L216.703 107.775C223.432 124.902 239.949 136.161 258.335 136.161H457.459C459.923 136.161 462.347 136.36 464.691 136.744Z" fill="#CCCCCC"/>
<path d="M502.197 441.974V209.844C502.197 185.138 482.169 165.11 457.463 165.11H258.336C239.943 165.11 223.425 153.852 216.699 136.733L207.884 114.293C201.159 97.174 184.64 85.916 166.247 85.916H54.7989C30.0929 85.916 10.0649 105.944 10.0649 130.65V441.973C10.0649 464.385 28.2329 482.553 50.6449 482.553H461.616C484.029 482.554 502.197 464.386 502.197 441.974Z" fill="#F95428"/>
<path d="M378.884 232H375.58C360.372 232 348 244.373 348 259.58V285.184C348 300.392 360.373 312.764 375.58 312.764H378.884C394.092 312.764 406.464 300.391 406.464 285.184V259.58C406.464 244.371 394.092 232 378.884 232ZM386.596 285.183C386.596 289.435 383.136 292.895 378.884 292.895H375.58C371.328 292.895 367.868 289.435 367.868 285.183V259.579C367.868 255.327 371.328 251.867 375.58 251.867H378.884C383.136 251.867 386.596 255.327 386.596 259.579V285.183Z" fill="black"/>
<line x1="325.5" y1="240.5" x2="325.5" y2="304.5" stroke="black" stroke-width="17" stroke-linecap="round"/>
<path d="M57.7479 441.974V130.65C57.7479 105.944 77.7759 85.916 102.482 85.916H54.7989C30.0929 85.916 10.0649 105.944 10.0649 130.65V441.975C10.0649 464.387 28.2329 482.555 50.6449 482.555H98.3269C75.9159 482.554 57.7479 464.386 57.7479 441.974Z" fill="#E54728"/>
<path d="M457.332 155.892H258.205C243.796 155.892 231.083 147.227 225.815 133.817L217 111.377C208.724 90.311 188.752 76.698 166.117 76.698H57.372V38.664H454.627V137.463C454.627 142.949 459.074 147.397 464.561 147.397C470.049 147.397 474.495 142.949 474.495 137.463V28.73C474.495 23.244 470.048 18.796 464.561 18.796H47.437C41.949 18.796 37.503 23.244 37.503 28.73V79.476C15.745 86.692 0 107.219 0 131.367V189.782C0 195.268 4.447 199.716 9.934 199.716C15.421 199.716 19.868 195.268 19.868 189.782V131.367C19.868 112.178 35.48 96.568 54.667 96.568H166.115C180.522 96.568 193.237 105.233 198.505 118.643L207.32 141.083C215.596 162.149 235.568 175.762 258.202 175.762H457.329C476.517 175.762 492.128 191.374 492.128 210.561V442.693C492.128 459.591 478.38 473.339 461.482 473.339H50.514C33.616 473.338 19.868 459.591 19.868 442.692V225.544C19.868 220.058 15.421 215.61 9.934 215.61C4.447 215.61 0 220.057 0 225.544V442.692C0 470.545 22.66 493.206 50.514 493.206H461.487C489.34 493.206 512.001 470.546 512.001 442.692V210.562C512 180.417 487.475 155.892 457.332 155.892Z" fill="black"/>
<path d="M166.884 232H163.58C148.372 232 136 244.373 136 259.58V285.184C136 300.392 148.373 312.764 163.58 312.764H166.884C182.092 312.764 194.464 300.391 194.464 285.184V259.58C194.464 244.371 182.092 232 166.884 232ZM174.596 285.183C174.596 289.435 171.136 292.895 166.884 292.895H163.58C159.328 292.895 155.868 289.435 155.868 285.183V259.579C155.868 255.327 159.328 251.867 163.58 251.867H166.884C171.136 251.867 174.596 255.327 174.596 259.579V285.183Z" fill="black"/>
<line x1="113.5" y1="240.5" x2="113.5" y2="304.5" stroke="black" stroke-width="17" stroke-linecap="round"/>
<path d="M272.884 232H269.58C254.372 232 242 244.373 242 259.58V285.184C242 300.392 254.373 312.764 269.58 312.764H272.884C288.092 312.764 300.464 300.391 300.464 285.184V259.58C300.464 244.371 288.092 232 272.884 232ZM280.596 285.183C280.596 289.435 277.136 292.895 272.884 292.895H269.58C265.328 292.895 261.868 289.435 261.868 285.183V259.579C261.868 255.327 265.328 251.867 269.58 251.867H272.884C277.136 251.867 280.596 255.327 280.596 259.579V285.183Z" fill="black"/>
<line x1="219.5" y1="240.5" x2="219.5" y2="304.5" stroke="black" stroke-width="17" stroke-linecap="round"/>
<path d="M345.884 333H342.58C327.372 333 315 345.373 315 360.58V386.184C315 401.392 327.373 413.764 342.58 413.764H345.884C361.092 413.764 373.464 401.391 373.464 386.184V360.58C373.464 345.371 361.092 333 345.884 333ZM353.596 386.183C353.596 390.435 350.136 393.895 345.884 393.895H342.58C338.328 393.895 334.868 390.435 334.868 386.183V360.579C334.868 356.327 338.328 352.867 342.58 352.867H345.884C350.136 352.867 353.596 356.327 353.596 360.579V386.183Z" fill="black"/>
<line x1="398.5" y1="341.5" x2="398.5" y2="405.5" stroke="black" stroke-width="17" stroke-linecap="round"/>
<path d="M135.884 333H132.58C117.372 333 105 345.373 105 360.58V386.184C105 401.392 117.373 413.764 132.58 413.764H135.884C151.092 413.764 163.464 401.391 163.464 386.184V360.58C163.464 345.371 151.092 333 135.884 333ZM143.596 386.183C143.596 390.435 140.136 393.895 135.884 393.895H132.58C128.328 393.895 124.868 390.435 124.868 386.183V360.579C124.868 356.327 128.328 352.867 132.58 352.867H135.884C140.136 352.867 143.596 356.327 143.596 360.579V386.183Z" fill="black"/>
<line x1="186.5" y1="341.5" x2="186.5" y2="405.5" stroke="black" stroke-width="17" stroke-linecap="round"/>
<path d="M272.884 333H269.58C254.372 333 242 345.373 242 360.58V386.184C242 401.392 254.373 413.764 269.58 413.764H272.884C288.092 413.764 300.464 401.391 300.464 386.184V360.58C300.464 345.371 288.092 333 272.884 333ZM280.596 386.183C280.596 390.435 277.136 393.895 272.884 393.895H269.58C265.328 393.895 261.868 390.435 261.868 386.183V360.579C261.868 356.327 265.328 352.867 269.58 352.867H272.884C277.136 352.867 280.596 356.327 280.596 360.579V386.183Z" fill="black"/>
<line x1="219.5" y1="341.5" x2="219.5" y2="405.5" stroke="black" stroke-width="17" stroke-linecap="round"/>
</g>
<defs>
<clipPath id="clip0">
<rect width="512.001" height="512.001" fill="white"/>
</clipPath>
</defs>
</svg>
