<svg width="40" height="39" viewBox="0 0 40 39" fill="none" xmlns="http://www.w3.org/2000/svg">
<path d="M38.3385 19.0542L33.0551 19.1818C33.0406 19.1818 33.0265 19.1854 33.0124 19.1866C32.9983 19.1878 32.9774 19.1894 32.9597 19.1922C32.9352 19.1965 32.9111 19.2021 32.8873 19.2091C32.8695 19.214 32.8518 19.2176 32.8345 19.224C32.8043 19.2354 32.7749 19.2489 32.7464 19.2643C32.7355 19.2699 32.7243 19.2747 32.7134 19.2812C32.6814 19.2997 32.651 19.3208 32.6225 19.3444L27.6553 23.4488L20.2512 19.1633V15.1494L27.6151 15.8198C27.6243 15.8198 27.6332 15.8198 27.6424 15.8198H27.6867C27.7182 15.8194 27.7497 15.8169 27.7808 15.8121C27.7893 15.8121 27.7973 15.8121 27.8058 15.8101C27.8091 15.8094 27.8123 15.8084 27.8155 15.8073C27.8567 15.7994 27.8971 15.7877 27.9362 15.7723C27.9462 15.7683 27.9551 15.763 27.9651 15.7586C27.9865 15.7498 28.0073 15.7399 28.0275 15.7288L31.5799 13.7028L37.4102 16.2226C37.5814 16.2935 37.7737 16.2942 37.9455 16.2246C38.1172 16.155 38.2547 16.0205 38.3282 15.8504C38.4017 15.6802 38.4054 15.488 38.3383 15.3152C38.2713 15.1424 38.1389 15.0029 37.9699 14.9268L33.1142 12.8304L36.1133 11.1198C36.1937 11.0739 36.2644 11.0125 36.3212 10.9393C36.378 10.8661 36.4198 10.7824 36.4442 10.693C36.4686 10.6036 36.4752 10.5103 36.4636 10.4184C36.452 10.3265 36.4223 10.2377 36.3764 10.1572C36.3305 10.0768 36.2692 10.0061 36.196 9.94934C36.1227 9.89256 36.039 9.85075 35.9497 9.82632C35.8603 9.80188 35.767 9.79529 35.675 9.80691C35.5831 9.81854 35.4944 9.84816 35.4139 9.89408L28.1941 14.0094L27.2481 8.83095L33.0828 7.64831C33.2662 7.61096 33.4273 7.50228 33.5305 7.34618C33.6338 7.19008 33.6708 6.99935 33.6335 6.81595C33.5961 6.63255 33.4875 6.4715 33.3314 6.36823C33.1753 6.26495 32.9845 6.22792 32.8011 6.26527L27.8416 7.27126L29.7606 4.01668C29.8557 3.85548 29.8828 3.66313 29.836 3.48194C29.7892 3.30075 29.6724 3.14557 29.5112 3.05053C29.3499 2.9555 29.1576 2.92839 28.9764 2.97518C28.7952 3.02197 28.64 3.13881 28.545 3.30002L25.964 7.67567C25.9393 7.71803 25.9189 7.76279 25.9033 7.80927C25.8315 7.88887 25.779 7.98389 25.7497 8.08701C25.7205 8.19013 25.7153 8.29858 25.7347 8.40401L26.8179 14.3313L20.2532 13.7325V6.17956L24.9347 2.33467C25.0743 2.21435 25.1613 2.0442 25.1771 1.86058C25.1929 1.67696 25.1363 1.49444 25.0193 1.35203C24.9024 1.20961 24.7343 1.11861 24.5511 1.09845C24.3679 1.0783 24.1841 1.1306 24.039 1.24418L20.2532 4.35188V1.15404C20.2488 0.969819 20.1726 0.794625 20.0407 0.66589C19.9089 0.537155 19.7319 0.465088 19.5476 0.465088C19.3634 0.465088 19.1864 0.537155 19.0545 0.66589C18.9227 0.794625 18.8464 0.969819 18.842 1.15404V9.11786L13.9915 7.57105L15.5709 1.98137C15.5962 1.89222 15.6036 1.79898 15.5927 1.70697C15.5819 1.61497 15.5531 1.52599 15.5078 1.44513C15.4626 1.36427 15.4019 1.29311 15.3292 1.23571C15.2565 1.1783 15.1732 1.13579 15.084 1.11058C14.9949 1.08537 14.9017 1.07797 14.8097 1.0888C14.7176 1.09963 14.6287 1.12847 14.5478 1.17368C14.467 1.2189 14.3958 1.27959 14.3384 1.35231C14.281 1.42502 14.2385 1.50833 14.2133 1.59748L12.8604 6.38237L10.7474 3.26219C10.6395 3.11498 10.4786 3.01537 10.2987 2.98428C10.1188 2.9532 9.93394 2.99307 9.78283 3.09551C9.63173 3.19795 9.52622 3.35498 9.48849 3.5336C9.45076 3.71222 9.48375 3.8985 9.58052 4.0533L12.5441 8.42976C12.5522 8.44143 12.5622 8.45189 12.5711 8.46316C12.5799 8.47443 12.5924 8.49093 12.6045 8.5034C12.6212 8.52171 12.6389 8.53904 12.6576 8.55531C12.6713 8.56778 12.6842 8.58026 12.6978 8.59152C12.7234 8.61097 12.7503 8.62859 12.7783 8.64424C12.7892 8.65027 12.7992 8.65752 12.8105 8.66315C12.8434 8.67987 12.8776 8.694 12.9127 8.7054L18.8424 10.5967V19.1625L15.2028 21.2606L12.1043 14.7172C12.1019 14.7124 12.0979 14.7087 12.095 14.7039C12.0697 14.6513 12.0378 14.6021 12.0001 14.5574C11.9969 14.5534 11.9928 14.551 11.9896 14.5474C11.9864 14.5438 11.9739 14.5333 11.9667 14.5257C11.9273 14.486 11.8834 14.4512 11.8359 14.4218C11.8291 14.4174 11.8238 14.4106 11.817 14.4065L8.2675 12.3761L7.47639 6.07574C7.45302 5.8901 7.35686 5.72135 7.20906 5.6066C7.06126 5.49186 6.87394 5.44053 6.6883 5.4639C6.50265 5.48727 6.3339 5.58344 6.21916 5.73123C6.10441 5.87903 6.05308 6.06635 6.07645 6.25199L6.73679 11.4992L3.73974 9.78423C3.57731 9.69133 3.38463 9.66675 3.20408 9.71592C3.02353 9.76508 2.86991 9.88396 2.77701 10.0464C2.68411 10.2088 2.65954 10.4015 2.7087 10.582C2.75786 10.7626 2.87674 10.9162 3.03917 11.0091L10.2541 15.1361L6.27322 18.5826L2.28951 14.1563C2.16311 14.0218 1.9891 13.9423 1.80474 13.9346C1.62039 13.9269 1.44035 13.9917 1.30319 14.1151C1.16604 14.2385 1.08267 14.4108 1.07094 14.5949C1.05922 14.779 1.12007 14.9605 1.24046 15.1003L4.62622 18.8619H0.850938C0.666719 18.8663 0.491525 18.9425 0.362789 19.0744C0.234054 19.2062 0.161987 19.3832 0.161987 19.5675C0.161987 19.7518 0.234054 19.9287 0.362789 20.0606C0.491525 20.1924 0.666719 20.2687 0.850938 20.2731H5.92958C5.97869 20.273 6.02765 20.2677 6.07565 20.2574C6.18072 20.2787 6.28927 20.2757 6.39299 20.2486C6.49671 20.2214 6.59284 20.1709 6.67401 20.1009L11.2283 16.1574L13.9758 21.9644L7.16373 25.8942L2.0706 23.4633C1.98669 23.421 1.89518 23.3959 1.80144 23.3894C1.70769 23.3829 1.6136 23.3952 1.52468 23.4256C1.43576 23.456 1.3538 23.5038 1.28361 23.5663C1.21342 23.6288 1.15641 23.7046 1.11592 23.7894C1.07544 23.8742 1.05229 23.9663 1.04785 24.0601C1.0434 24.154 1.05775 24.2478 1.09004 24.336C1.12232 24.4243 1.17191 24.5052 1.23588 24.574C1.29986 24.6429 1.37693 24.6982 1.46258 24.7369L5.68009 26.7488L3.03716 28.2719C2.87682 28.3663 2.76025 28.5202 2.7128 28.7001C2.66536 28.8801 2.69088 29.0714 2.78381 29.2326C2.87674 29.3938 3.02956 29.5118 3.20904 29.5609C3.38851 29.61 3.58011 29.5862 3.74215 29.4948L7.55244 27.2981L10.852 25.3956L11.5474 30.5362L5.82375 31.5072C5.73241 31.5227 5.64501 31.556 5.56655 31.6052C5.48809 31.6545 5.4201 31.7187 5.36646 31.7943C5.31282 31.8698 5.27459 31.9552 5.25394 32.0455C5.23329 32.1358 5.23063 32.2293 5.24611 32.3206C5.26159 32.412 5.29491 32.4994 5.34417 32.5778C5.39343 32.6563 5.45766 32.7243 5.5332 32.7779C5.68575 32.8862 5.87508 32.9295 6.05955 32.8983L10.9623 32.0673L9.05016 35.3146C8.95523 35.476 8.92829 35.6685 8.97527 35.8497C9.02224 36.0309 9.13929 36.1861 9.30065 36.281C9.46202 36.3759 9.65448 36.4029 9.83571 36.3559C10.0169 36.3089 10.172 36.1919 10.267 36.0305L12.9489 31.4762C12.9562 31.4637 12.961 31.4504 12.9674 31.436C12.9739 31.4215 12.9835 31.4046 12.9904 31.3881C12.9995 31.3652 13.0074 31.3418 13.0141 31.318C13.0194 31.3003 13.0254 31.283 13.0294 31.2649C13.0359 31.2333 13.0402 31.2013 13.0423 31.1692C13.0423 31.1571 13.0451 31.1454 13.0455 31.1329C13.0466 31.0958 13.0448 31.0587 13.0399 31.0219L12.1751 24.6326L19.547 20.3837L22.6004 22.1515L18.5563 28.3633C18.5511 28.3709 18.5479 28.3798 18.543 28.3878C18.5382 28.3958 18.529 28.4128 18.5221 28.4256C18.5074 28.454 18.4947 28.4835 18.4843 28.5138C18.4815 28.5214 18.477 28.5282 18.4746 28.5359C18.4748 28.5391 18.4748 28.5423 18.4746 28.5455C18.4624 28.5862 18.4538 28.6278 18.4489 28.6699C18.4489 28.6803 18.4489 28.6904 18.4489 28.7013C18.4466 28.7244 18.4455 28.7476 18.4457 28.7709L18.576 32.858L13.6266 36.8345C13.4807 36.9519 13.3874 37.1224 13.3673 37.3086C13.3471 37.4948 13.4017 37.6813 13.5191 37.8272C13.6365 37.9731 13.8071 38.0664 13.9932 38.0865C14.1794 38.1067 14.366 38.052 14.5118 37.9346L18.6352 34.6229L18.739 38.0727C18.7449 38.2597 18.8249 38.4367 18.9614 38.5648C19.0978 38.6928 19.2795 38.7615 19.4665 38.7555C19.6536 38.7496 19.8306 38.6696 19.9587 38.5332C20.0867 38.3968 20.1553 38.215 20.1494 38.028L19.8842 29.7209L24.9053 31.3056L23.2241 37.016C23.1745 37.1946 23.197 37.3855 23.287 37.5476C23.377 37.7097 23.5271 37.8298 23.7049 37.8822C23.8827 37.9345 24.074 37.9147 24.2374 37.8272C24.4008 37.7397 24.5232 37.5914 24.5782 37.4143L26.0071 32.5598L27.9869 35.779C28.0344 35.8601 28.0976 35.9308 28.1728 35.9871C28.2481 36.0434 28.3338 36.0842 28.4249 36.1069C28.5161 36.1296 28.6109 36.134 28.7037 36.1196C28.7966 36.1052 28.8856 36.0724 28.9657 36.0232C29.0457 35.974 29.1151 35.9092 29.1698 35.8328C29.2244 35.7564 29.2633 35.6699 29.2841 35.5782C29.3049 35.4866 29.3072 35.3917 29.2908 35.2992C29.2744 35.2067 29.2398 35.1184 29.1888 35.0394L26.527 30.7116C26.5011 30.6699 26.4711 30.6309 26.4372 30.5953C26.4003 30.4947 26.3409 30.4038 26.2634 30.3297C26.1859 30.2557 26.0924 30.2003 25.9902 30.168L20.2464 28.3548L23.8237 22.8621L31.171 27.115L31.6137 33.0154C31.6277 33.2021 31.7154 33.3757 31.8573 33.4978C31.9993 33.6199 32.184 33.6807 32.3708 33.6666C32.5575 33.6526 32.7311 33.5649 32.8532 33.423C32.9754 33.281 33.0361 33.0963 33.0221 32.9095L32.6506 27.9725L35.2819 29.496C35.4439 29.5898 35.6364 29.6153 35.8172 29.5671C35.998 29.5189 36.1523 29.4008 36.2461 29.2389C36.3398 29.0769 36.3654 28.8844 36.3172 28.7035C36.2689 28.5227 36.1509 28.3685 35.9889 28.2747L32.1975 26.0776L28.9595 24.2029L32.9971 20.8658L36.8444 25.2157C36.9695 25.3521 37.143 25.4338 37.3278 25.4435C37.5125 25.4531 37.6937 25.3899 37.8322 25.2673C37.9708 25.1447 38.0557 24.9726 38.0686 24.7881C38.0816 24.6035 38.0216 24.4213 37.9015 24.2805L34.6071 20.556L38.3743 20.465C38.4684 20.465 38.5615 20.4461 38.6482 20.4095C38.7349 20.3729 38.8134 20.3194 38.8791 20.252C38.9448 20.1847 38.9963 20.1049 39.0307 20.0173C39.0651 19.9297 39.0817 19.8362 39.0794 19.7421C39.0771 19.6481 39.0561 19.5554 39.0175 19.4696C38.9789 19.3838 38.9235 19.3066 38.8546 19.2425C38.7857 19.1784 38.7047 19.1287 38.6164 19.0964C38.528 19.0641 38.4341 19.0497 38.3401 19.0542H38.3385Z" fill="black"/>
</svg>
