<svg width="214" height="39" viewBox="0 0 214 39" fill="none" xmlns="http://www.w3.org/2000/svg">
<path d="M38.3386 19.0542L33.0552 19.1818C33.0407 19.1818 33.0266 19.1854 33.0125 19.1866C32.9984 19.1878 32.9775 19.1894 32.9598 19.1922C32.9353 19.1965 32.9112 19.2021 32.8874 19.2091C32.8696 19.214 32.8519 19.2176 32.8346 19.224C32.8044 19.2354 32.775 19.2489 32.7465 19.2643C32.7356 19.2699 32.7244 19.2747 32.7135 19.2812C32.6815 19.2997 32.6511 19.3208 32.6226 19.3444L27.6554 23.4488L20.2513 19.1633V15.1494L27.6152 15.8198C27.6244 15.8198 27.6333 15.8198 27.6425 15.8198H27.6868C27.7183 15.8194 27.7498 15.8169 27.7809 15.8121C27.7894 15.8121 27.7974 15.8121 27.8059 15.8101C27.8092 15.8094 27.8124 15.8084 27.8156 15.8073C27.8568 15.7994 27.8972 15.7877 27.9363 15.7723C27.9463 15.7683 27.9552 15.763 27.9652 15.7586C27.9866 15.7498 28.0074 15.7399 28.0276 15.7288L31.58 13.7028L37.4103 16.2226C37.5815 16.2935 37.7738 16.2942 37.9456 16.2246C38.1173 16.155 38.2548 16.0205 38.3283 15.8504C38.4018 15.6802 38.4055 15.488 38.3384 15.3152C38.2714 15.1424 38.139 15.0029 37.97 14.9268L33.1143 12.8304L36.1134 11.1198C36.1938 11.0739 36.2645 11.0125 36.3213 10.9393C36.3781 10.8661 36.4199 10.7824 36.4443 10.693C36.4687 10.6036 36.4753 10.5103 36.4637 10.4184C36.4521 10.3265 36.4224 10.2377 36.3765 10.1572C36.3306 10.0768 36.2693 10.0061 36.1961 9.94934C36.1228 9.89256 36.0391 9.85075 35.9498 9.82632C35.8604 9.80188 35.7671 9.79529 35.6751 9.80691C35.5832 9.81854 35.4945 9.84816 35.414 9.89408L28.1942 14.0094L27.2482 8.83095L33.0829 7.64831C33.2663 7.61096 33.4274 7.50228 33.5306 7.34618C33.6339 7.19008 33.6709 6.99935 33.6336 6.81595C33.5962 6.63255 33.4876 6.4715 33.3315 6.36823C33.1754 6.26495 32.9846 6.22792 32.8012 6.26527L27.8417 7.27126L29.7607 4.01668C29.8558 3.85548 29.8829 3.66313 29.8361 3.48194C29.7893 3.30075 29.6725 3.14557 29.5113 3.05053C29.35 2.9555 29.1577 2.92839 28.9765 2.97518C28.7953 3.02197 28.6401 3.13881 28.5451 3.30002L25.9641 7.67567C25.9394 7.71803 25.919 7.76279 25.9034 7.80927C25.8316 7.88887 25.7791 7.98389 25.7498 8.08701C25.7206 8.19013 25.7154 8.29858 25.7348 8.40401L26.818 14.3313L20.2533 13.7325V6.17956L24.9348 2.33467C25.0744 2.21435 25.1614 2.0442 25.1772 1.86058C25.193 1.67696 25.1364 1.49444 25.0194 1.35203C24.9025 1.20961 24.7344 1.11861 24.5512 1.09845C24.368 1.0783 24.1842 1.1306 24.0391 1.24418L20.2533 4.35188V1.15404C20.2489 0.969819 20.1727 0.794625 20.0408 0.66589C19.909 0.537155 19.732 0.465088 19.5477 0.465088C19.3635 0.465088 19.1865 0.537155 19.0546 0.66589C18.9228 0.794625 18.8465 0.969819 18.8421 1.15404V9.11786L13.9916 7.57105L15.571 1.98137C15.5963 1.89222 15.6037 1.79898 15.5928 1.70697C15.582 1.61497 15.5532 1.52599 15.5079 1.44513C15.4627 1.36427 15.402 1.29311 15.3293 1.23571C15.2566 1.1783 15.1733 1.13579 15.0841 1.11058C14.995 1.08537 14.9018 1.07797 14.8098 1.0888C14.7177 1.09963 14.6288 1.12847 14.5479 1.17368C14.4671 1.2189 14.3959 1.27959 14.3385 1.35231C14.2811 1.42502 14.2386 1.50833 14.2134 1.59748L12.8605 6.38237L10.7475 3.26219C10.6396 3.11498 10.4787 3.01537 10.2988 2.98428C10.1189 2.9532 9.934 2.99307 9.78289 3.09551C9.63179 3.19795 9.52628 3.35498 9.48855 3.5336C9.45082 3.71222 9.48381 3.8985 9.58058 4.0533L12.5442 8.42976C12.5523 8.44143 12.5623 8.45189 12.5712 8.46316C12.58 8.47443 12.5925 8.49093 12.6046 8.5034C12.6213 8.52171 12.639 8.53904 12.6577 8.55531C12.6714 8.56778 12.6843 8.58026 12.6979 8.59152C12.7235 8.61097 12.7504 8.62859 12.7784 8.64424C12.7893 8.65027 12.7993 8.65752 12.8106 8.66315C12.8435 8.67987 12.8777 8.694 12.9128 8.7054L18.8425 10.5967V19.1625L15.2029 21.2606L12.1044 14.7172C12.102 14.7124 12.098 14.7087 12.0951 14.7039C12.0698 14.6513 12.0379 14.6021 12.0002 14.5574C11.997 14.5534 11.9929 14.551 11.9897 14.5474C11.9865 14.5438 11.974 14.5333 11.9668 14.5257C11.9274 14.486 11.8835 14.4512 11.836 14.4218C11.8292 14.4174 11.8239 14.4106 11.8171 14.4065L8.26756 12.3761L7.47645 6.07574C7.45308 5.8901 7.35692 5.72135 7.20912 5.6066C7.06132 5.49186 6.874 5.44053 6.68836 5.4639C6.50271 5.48727 6.33396 5.58344 6.21922 5.73123C6.10447 5.87903 6.05314 6.06635 6.07651 6.25199L6.73685 11.4992L3.7398 9.78423C3.57737 9.69133 3.38469 9.66675 3.20414 9.71592C3.02359 9.76508 2.86997 9.88396 2.77707 10.0464C2.68417 10.2088 2.6596 10.4015 2.70876 10.582C2.75792 10.7626 2.8768 10.9162 3.03923 11.0091L10.2542 15.1361L6.27328 18.5826L2.28957 14.1563C2.16317 14.0218 1.98916 13.9423 1.8048 13.9346C1.62045 13.9269 1.44041 13.9917 1.30325 14.1151C1.1661 14.2385 1.08273 14.4108 1.071 14.5949C1.05928 14.779 1.12013 14.9605 1.24052 15.1003L4.62628 18.8619H0.850999C0.66678 18.8663 0.491586 18.9425 0.36285 19.0744C0.234115 19.2062 0.162048 19.3832 0.162048 19.5675C0.162048 19.7518 0.234115 19.9287 0.36285 20.0606C0.491586 20.1924 0.66678 20.2687 0.850999 20.2731H5.92964C5.97875 20.273 6.02771 20.2677 6.07571 20.2574C6.18078 20.2787 6.28933 20.2757 6.39305 20.2486C6.49677 20.2214 6.5929 20.1709 6.67407 20.1009L11.2284 16.1574L13.9759 21.9644L7.16379 25.8942L2.07066 23.4633C1.98675 23.421 1.89524 23.3959 1.8015 23.3894C1.70775 23.3829 1.61366 23.3952 1.52474 23.4256C1.43582 23.456 1.35386 23.5038 1.28367 23.5663C1.21348 23.6288 1.15647 23.7046 1.11598 23.7894C1.0755 23.8742 1.05235 23.9663 1.04791 24.0601C1.04346 24.154 1.05781 24.2478 1.0901 24.336C1.12238 24.4243 1.17197 24.5052 1.23594 24.574C1.29992 24.6429 1.37699 24.6982 1.46264 24.7369L5.68015 26.7488L3.03722 28.2719C2.87688 28.3663 2.76031 28.5202 2.71286 28.7001C2.66542 28.8801 2.69094 29.0714 2.78387 29.2326C2.8768 29.3938 3.02962 29.5118 3.2091 29.5609C3.38857 29.61 3.58017 29.5862 3.74221 29.4948L7.5525 27.2981L10.8521 25.3956L11.5475 30.5362L5.82381 31.5072C5.73247 31.5227 5.64507 31.556 5.56661 31.6052C5.48815 31.6545 5.42016 31.7187 5.36652 31.7943C5.31288 31.8698 5.27465 31.9552 5.254 32.0455C5.23335 32.1358 5.23069 32.2293 5.24617 32.3206C5.26165 32.412 5.29497 32.4994 5.34423 32.5778C5.39349 32.6563 5.45772 32.7243 5.53326 32.7779C5.68581 32.8862 5.87514 32.9295 6.05961 32.8983L10.9624 32.0673L9.05022 35.3146C8.95529 35.476 8.92835 35.6685 8.97533 35.8497C9.0223 36.0309 9.13935 36.1861 9.30071 36.281C9.46208 36.3759 9.65454 36.4029 9.83577 36.3559C10.017 36.3089 10.1721 36.1919 10.2671 36.0305L12.949 31.4762C12.9563 31.4637 12.9611 31.4504 12.9675 31.436C12.974 31.4215 12.9836 31.4046 12.9905 31.3881C12.9996 31.3652 13.0075 31.3418 13.0142 31.318C13.0195 31.3003 13.0255 31.283 13.0295 31.2649C13.036 31.2333 13.0403 31.2013 13.0424 31.1692C13.0424 31.1571 13.0452 31.1454 13.0456 31.1329C13.0467 31.0958 13.0449 31.0587 13.04 31.0219L12.1752 24.6326L19.5471 20.3837L22.6005 22.1515L18.5564 28.3633C18.5512 28.3709 18.548 28.3798 18.5431 28.3878C18.5383 28.3958 18.5291 28.4128 18.5222 28.4256C18.5075 28.454 18.4948 28.4835 18.4844 28.5138C18.4816 28.5214 18.4771 28.5282 18.4747 28.5359C18.4749 28.5391 18.4749 28.5423 18.4747 28.5455C18.4625 28.5862 18.4539 28.6278 18.449 28.6699C18.449 28.6803 18.449 28.6904 18.449 28.7013C18.4467 28.7244 18.4456 28.7476 18.4458 28.7709L18.5761 32.858L13.6267 36.8345C13.4808 36.9519 13.3875 37.1224 13.3674 37.3086C13.3472 37.4948 13.4018 37.6813 13.5192 37.8272C13.6366 37.9731 13.8072 38.0664 13.9933 38.0865C14.1795 38.1067 14.3661 38.052 14.5119 37.9346L18.6353 34.6229L18.7391 38.0727C18.745 38.2597 18.825 38.4367 18.9615 38.5648C19.0979 38.6928 19.2796 38.7615 19.4666 38.7555C19.6537 38.7496 19.8307 38.6696 19.9588 38.5332C20.0868 38.3968 20.1554 38.215 20.1495 38.028L19.8843 29.7209L24.9054 31.3056L23.2242 37.016C23.1746 37.1946 23.1971 37.3855 23.2871 37.5476C23.3771 37.7097 23.5272 37.8298 23.705 37.8822C23.8828 37.9345 24.0741 37.9147 24.2375 37.8272C24.4009 37.7397 24.5233 37.5914 24.5783 37.4143L26.0072 32.5598L27.987 35.779C28.0345 35.8601 28.0977 35.9308 28.1729 35.9871C28.2482 36.0434 28.3339 36.0842 28.425 36.1069C28.5162 36.1296 28.611 36.134 28.7038 36.1196C28.7967 36.1052 28.8857 36.0724 28.9658 36.0232C29.0458 35.974 29.1152 35.9092 29.1699 35.8328C29.2245 35.7564 29.2634 35.6699 29.2842 35.5782C29.305 35.4866 29.3073 35.3917 29.2909 35.2992C29.2745 35.2067 29.2399 35.1184 29.1889 35.0394L26.5271 30.7116C26.5012 30.6699 26.4712 30.6309 26.4373 30.5953C26.4004 30.4947 26.341 30.4038 26.2635 30.3297C26.186 30.2557 26.0925 30.2003 25.9903 30.168L20.2465 28.3548L23.8238 22.8621L31.1711 27.115L31.6138 33.0154C31.6278 33.2021 31.7155 33.3757 31.8574 33.4978C31.9994 33.6199 32.1841 33.6807 32.3709 33.6666C32.5576 33.6526 32.7312 33.5649 32.8533 33.423C32.9755 33.281 33.0362 33.0963 33.0222 32.9095L32.6507 27.9725L35.282 29.496C35.444 29.5898 35.6365 29.6153 35.8173 29.5671C35.9981 29.5189 36.1524 29.4008 36.2462 29.2389C36.3399 29.0769 36.3655 28.8844 36.3173 28.7035C36.269 28.5227 36.151 28.3685 35.989 28.2747L32.1976 26.0776L28.9596 24.2029L32.9972 20.8658L36.8445 25.2157C36.9696 25.3521 37.1431 25.4338 37.3279 25.4435C37.5126 25.4531 37.6938 25.3899 37.8323 25.2673C37.9709 25.1447 38.0558 24.9726 38.0687 24.7881C38.0817 24.6035 38.0217 24.4213 37.9016 24.2805L34.6072 20.556L38.3744 20.465C38.4685 20.465 38.5616 20.4461 38.6483 20.4095C38.735 20.3729 38.8135 20.3194 38.8792 20.252C38.9449 20.1847 38.9964 20.1049 39.0308 20.0173C39.0652 19.9297 39.0818 19.8362 39.0795 19.7421C39.0772 19.6481 39.0562 19.5554 39.0176 19.4696C38.979 19.3838 38.9236 19.3066 38.8547 19.2425C38.7858 19.1784 38.7048 19.1287 38.6165 19.0964C38.5281 19.0641 38.4342 19.0497 38.3402 19.0542H38.3386Z" fill="#1AEEC2"/>
<path d="M52.567 9.71341V30.149H56.4052V20.8394L64.759 30.149H69.7262L60.8079 20.2718L68.9359 9.82694H64.3075L56.4052 20.1583V9.71341H52.567Z" fill="white"/>
<path d="M85.1916 9.82681L75.0316 30.1488H79.2084L80.7889 26.97H90.1588L91.7393 30.1488H95.9161L85.7561 9.82681H85.1916ZM85.4174 17.4334L88.2397 23.564H82.5952L85.4174 17.4334Z" fill="white"/>
<path d="M122.898 9.82681L113.076 21.5205L103.368 9.82681H103.142V30.1488H106.867V19.8175L113.076 27.4241L119.398 19.8175V30.1488H123.123V9.82681H122.898Z" fill="white"/>
<path d="M143.218 16.4653C143.33 16.1247 143.33 15.8976 143.33 15.557C143.33 15.2164 143.33 14.9894 143.218 14.6488C143.105 14.3082 142.879 14.0811 142.766 13.8541C142.54 13.7405 142.315 13.5135 142.088 13.3999C141.863 13.2864 141.638 13.1729 141.299 13.1729H136.331V18.0547H140.96C141.299 18.0547 141.638 17.9412 141.976 17.8276C142.202 17.7141 142.54 17.4871 142.653 17.26C142.991 17.0329 143.105 16.6923 143.218 16.4653ZM147.621 22.3689C147.846 22.9365 147.959 23.5042 147.959 24.1853C147.959 25.3206 147.846 26.2289 147.507 27.0237C147.169 27.8184 146.717 28.386 146.153 28.8402C145.589 29.2943 144.911 29.6348 144.234 29.862C143.443 29.9755 142.653 30.089 141.75 30.089H140.283V26.6831H141.75C142.088 26.6831 142.427 26.5696 142.653 26.4559C142.991 26.3424 143.218 26.1154 143.443 25.7748C143.669 25.5478 143.782 25.2071 144.007 24.8666C144.121 24.526 144.234 24.1853 144.234 23.8448C144.234 23.1636 144.007 22.596 143.443 22.1418C142.991 21.6877 142.315 21.4607 141.411 21.4607H136.331V22.823H132.606V9.76697H141.411C142.202 9.76697 142.991 9.8805 143.669 9.99403C144.346 10.1076 145.023 10.4481 145.475 10.9023C146.039 11.3564 146.378 11.9241 146.717 12.6052C147.055 13.2864 147.169 14.3082 147.169 15.4435C147.169 15.8976 147.055 16.2382 146.943 16.8059C146.717 17.1465 146.491 17.6006 146.266 18.0547C145.927 18.3953 145.589 18.7359 145.25 19.0765C144.798 19.3036 144.459 19.5306 143.895 19.5306C144.346 19.5306 144.911 19.7576 145.362 19.9847C145.814 20.2118 146.266 20.5524 146.605 21.0065C147.055 21.3471 147.394 21.8012 147.621 22.3689Z" fill="white"/>
<path d="M160.264 20.2118H165.457C165.795 20.2118 166.134 20.0983 166.473 19.9847C166.811 19.8712 167.15 19.6441 167.489 19.3036C167.828 18.963 168.053 18.6223 168.166 18.2818C168.392 17.8276 168.505 17.3735 168.505 16.8059C168.505 16.4653 168.505 16.1247 168.392 15.7841C168.28 15.33 168.166 14.9894 167.941 14.6488C167.714 14.3082 167.376 13.9676 167.037 13.7405C166.698 13.5135 166.134 13.3999 165.457 13.3999H160.264V20.2118ZM160.264 30.089H156.425V9.76697H165.457C166.473 9.76697 167.376 9.99403 168.28 10.3346C169.069 10.6752 169.86 11.1293 170.424 11.8105C170.988 12.3782 171.44 13.1729 171.779 14.0811C172.117 14.9894 172.23 15.8976 172.23 16.9194C172.23 18.5088 171.892 19.7576 171.101 21.0065C170.31 22.1418 169.296 22.9365 168.053 23.5042C169.746 25.7748 171.327 28.0454 173.02 30.316H168.505C167.714 29.2943 166.925 28.159 166.134 27.1372C165.343 26.1154 164.666 24.9801 163.877 23.8448H160.151V30.089H160.264Z" fill="white"/>
<path d="M181.6 30.089H185.438V9.76697H181.6V30.089Z" fill="white"/>
<path d="M200.904 23.5042H206.549L203.726 17.3735L200.904 23.5042ZM193.341 30.089L203.501 9.76697H203.839L214 30.089H209.822L208.242 26.9101H198.872L197.518 30.089H193.341Z" fill="white"/>
</svg>
