<svg width="19" height="20" viewBox="0 0 19 20" fill="none" xmlns="http://www.w3.org/2000/svg">
<path d="M15.6913 0.600952H7.09947V12.132H18.6304V3.60108C18.6352 1.98129 17.3112 0.600952 15.6913 0.600952ZM4.46085 0.600952H3.01948C1.39969 0.600952 0.0146484 1.92025 0.0146484 3.60577V5.04715H4.46085V0.600952ZM0.0146484 7.74681H4.46085V12.193H0.0146484V7.74681ZM14.189 19.2778H15.6303C17.2501 19.2778 18.6352 17.9586 18.6352 16.273V14.8363H14.189V19.2778ZM7.09947 14.8363H11.5457V19.2826H7.09947V14.8363ZM0.0146484 14.8363V16.2777C0.0146484 17.8975 1.33396 19.2826 3.01948 19.2826H4.46085V14.8363H0.0146484Z" fill="black"/>
</svg>
