<svg width="60" height="17" viewBox="0 0 60 17" fill="none" xmlns="http://www.w3.org/2000/svg">
<g clip-path="url(#clip0)">
<path d="M18.1074 12.2916V0.760597H18.9087V11.531H24.3957V12.2916H18.1074ZM28.3583 12.4513C27.1157 12.4513 26.1547 12.0506 25.4348 11.29C24.7556 10.5294 24.3925 9.44956 24.3925 8.04731C24.3925 6.68575 24.7118 5.56519 25.3942 4.76391C26.0734 3.92193 26.956 3.52128 28.1173 3.52128C29.1189 3.52128 29.9202 3.88124 30.5212 4.56358C31.1221 5.28349 31.4007 6.24441 31.4007 7.44634V8.088H25.1938C25.1938 9.24924 25.4755 10.1695 26.0358 10.7704C26.5554 11.4121 27.3567 11.6907 28.3583 11.6907C28.8372 11.6907 29.2785 11.65 29.6385 11.5717C29.9984 11.4903 30.4805 11.3714 31.0407 11.1304V11.891C30.5618 12.0913 30.1205 12.2509 29.7199 12.3323C29.2723 12.4137 28.8153 12.4544 28.3583 12.4513ZM28.1173 4.24432C27.2753 4.24432 26.6368 4.52602 26.1141 5.04561C25.6352 5.60588 25.3128 6.36648 25.2345 7.40878H30.5212C30.5212 6.40717 30.3208 5.64658 29.8795 5.0863C29.4789 4.52289 28.8779 4.24432 28.1173 4.24432ZM35.5668 3.56198C36.1677 3.56198 36.728 3.68092 37.1694 3.88124C37.6107 4.12225 38.0113 4.4822 38.3713 5.04248H38.412C38.3713 4.36326 38.3713 3.72161 38.3713 3.07995V0H39.1319V12.2916H38.6123L38.412 10.9708C37.7703 11.9317 36.8094 12.4513 35.6075 12.4513C34.4055 12.4513 33.526 12.0913 32.8843 11.3307C32.2427 10.6108 31.9641 9.52781 31.9641 8.12869C31.9641 6.64819 32.2834 5.5245 32.8843 4.72635C33.4853 3.92506 34.4055 3.56198 35.5668 3.56198ZM35.5668 4.24432C34.6465 4.24432 33.9266 4.56358 33.4446 5.24593C32.9657 5.88759 32.7247 6.84851 32.7247 8.12869C32.7247 10.5701 33.6856 11.772 35.5668 11.772C36.5277 11.772 37.2476 11.4903 37.6889 10.9301C38.1303 10.3698 38.3682 9.44956 38.3682 8.12556V8.00662C38.3682 6.68575 38.1271 5.72483 37.6889 5.16455C37.2883 4.52289 36.5684 4.24432 35.5668 4.24432ZM47.4578 3.72474V4.28501L45.6956 4.40395C46.1745 5.00492 46.4155 5.64658 46.4155 6.32579C46.4155 7.16777 46.1338 7.8063 45.5735 8.32901C45.0132 8.8486 44.2933 9.08961 43.37 9.08961C42.9693 9.08961 42.6907 9.08961 42.5687 9.04892C42.2494 9.20855 42.0084 9.40887 41.8488 9.60919C41.6891 9.85021 41.6077 10.0505 41.6077 10.3291C41.6077 10.6077 41.7267 10.808 41.927 10.9301C42.1273 11.049 42.4873 11.1304 42.9693 11.1304H44.4498C45.3701 11.1304 46.09 11.3307 46.572 11.6907C47.054 12.0506 47.3326 12.6109 47.3326 13.3715C47.3326 14.2917 46.9726 14.9741 46.2527 15.453C45.5328 15.9319 44.4905 16.1729 43.1289 16.1729C42.0491 16.1729 41.2071 15.9725 40.6061 15.5312C40.0052 15.1306 39.7266 14.5296 39.7266 13.8097C39.7266 13.2087 39.9269 12.7298 40.2869 12.3292C40.6468 11.9285 41.1664 11.6875 41.7674 11.5279C41.5264 11.409 41.2885 11.2462 41.1664 11.049C41.0099 10.8549 40.9254 10.6171 40.9254 10.3698C40.9254 9.80952 41.2854 9.28993 42.0053 8.8486C41.5264 8.64828 41.1257 8.32901 40.844 7.88768C40.5623 7.44634 40.4434 6.92676 40.4434 6.36648C40.4434 5.5245 40.7251 4.8046 41.2447 4.28501C41.8049 3.76543 42.5249 3.52441 43.4482 3.52441C44.0085 3.52441 44.4498 3.5651 44.7691 3.68405H47.4515V3.72474H47.4578ZM40.4903 13.7346C40.4903 14.8958 41.3699 15.4968 43.1321 15.4968C45.3732 15.4968 46.4969 14.7769 46.4969 13.3339C46.4969 12.8143 46.3372 12.4544 45.9773 12.2134C45.6173 11.9724 45.0571 11.8534 44.2558 11.8534H42.8535C41.2916 11.891 40.4903 12.492 40.4903 13.7346ZM41.1727 6.36648C41.1727 7.0457 41.373 7.52772 41.7736 7.92837C42.1743 8.28832 42.6939 8.48864 43.3762 8.48864C44.0961 8.48864 44.6564 8.28832 45.0164 7.92837C45.417 7.56841 45.5766 7.04883 45.5766 6.36648C45.5766 5.64657 45.3763 5.0863 44.9757 4.72635C44.575 4.36639 44.0554 4.16607 43.3355 4.16607C42.6563 4.16607 42.0929 4.36639 41.733 4.76704C41.3323 5.12386 41.1727 5.68414 41.1727 6.36648Z" fill="black"/>
<path d="M51.3423 12.4513C50.0996 12.4513 49.1387 12.0506 48.4188 11.29C47.7396 10.5294 47.3765 9.44958 47.3765 8.04733C47.3765 6.68577 47.6958 5.56522 48.3781 4.76393C49.0573 3.92195 49.94 3.52131 51.1013 3.52131C52.1029 3.52131 52.9042 3.88126 53.5051 4.56361C54.1061 5.28351 54.3847 6.24443 54.3847 7.44636V8.08802H48.2185C48.2185 9.24926 48.5002 10.1695 49.0605 10.7705C49.5801 11.4121 50.3814 11.6907 51.383 11.6907C51.8619 11.6907 52.3032 11.65 52.6631 11.5717C53.0231 11.4904 53.5051 11.3714 54.0654 11.1304V11.891C53.5865 12.0913 53.1452 12.251 52.7445 12.3323C52.3032 12.4137 51.8619 12.4513 51.3423 12.4513ZM51.1419 4.24434C50.3 4.24434 49.6614 4.52605 49.1387 5.04563C48.6598 5.60591 48.3374 6.3665 48.2592 7.4088H53.5458C53.5458 6.40719 53.3455 5.6466 52.9042 5.08632C52.5035 4.52292 51.9025 4.24434 51.1419 4.24434ZM58.8293 3.562C59.1893 3.562 59.5899 3.60269 59.9905 3.68094L59.8309 4.44153C59.4616 4.36015 59.086 4.31946 58.7104 4.32259C57.9905 4.32259 57.3895 4.64186 56.9075 5.24282C56.4286 5.88448 56.1876 6.64508 56.1876 7.606V12.2917H55.3863V3.72476H56.0655L56.1469 5.28664H56.1876C56.5475 4.64499 56.9075 4.20678 57.3081 3.96577C57.7901 3.68407 58.269 3.562 58.8293 3.562ZM10.4609 0.400665H4.73298V8.08802H12.4203V2.40075C12.4235 1.32089 11.5408 0.400665 10.4609 0.400665ZM2.9739 0.400665H2.01299C0.933125 0.400665 0.00976562 1.2802 0.00976562 2.40388V3.3648H2.9739V0.400665ZM0.00976562 5.16457H2.9739V8.12871H0.00976562V5.16457ZM9.45933 12.8519H10.4202C11.5001 12.8519 12.4235 11.9724 12.4235 10.8487V9.89092H9.45933V12.8519ZM4.73298 9.89092H7.69712V12.8551H4.73298V9.89092ZM0.00976562 9.89092V10.8518C0.00976562 11.9317 0.889304 12.8551 2.01299 12.8551H2.9739V9.89092H0.00976562Z" fill="black"/>
</g>
<defs>
<clipPath id="clip0">
<rect width="60" height="16.176" fill="white"/>
</clipPath>
</defs>
</svg>
