<svg height="512pt" viewBox="-64 0 512 512.00101" width="512pt" xmlns="http://www.w3.org/2000/svg"><g fill="#273c47"><path d="m360.382812 150.328125h-28.042968v-92.746094h28.042968c8.449219 0 15.296876 6.851563 15.296876 15.296875v62.15625c0 8.445313-6.847657 15.292969-15.296876 15.292969zm0 0"/><path d="m22.902344 119.679688h27.355468v-62.097657h-27.355468c-8.449219 0-15.296875 6.851563-15.296875 15.296875v31.507813c0 8.445312 6.847656 15.292969 15.296875 15.292969zm0 0"/><path d="m22.902344 198.953125h27.6875v-62.097656h-27.6875c-8.449219 0-15.296875 6.847656-15.296875 15.296875v31.507812c0 8.445313 6.847656 15.292969 15.296875 15.292969zm0 0"/></g><path d="m321.683594 7.605469h-260.082032c-17.964843 0-32.527343 14.5625-32.527343 32.527343v431.734376c0 17.964843 14.5625 32.527343 32.527343 32.527343h260.082032c17.964844 0 32.527344-14.5625 32.527344-32.527343v-431.734376c.003906-17.964843-14.5625-32.527343-32.527344-32.527343zm0 0" fill="#405968"/><path d="m86.703125 504.394531h-25.105469c-17.964844 0-32.523437-14.558593-32.523437-32.523437v-431.742188c0-17.964844 14.558593-32.523437 32.523437-32.523437h25.105469c-17.96875 0-32.527344 14.558593-32.527344 32.523437v431.742188c0 17.964844 14.558594 32.523437 32.527344 32.523437zm0 0" fill="#273c47"/><path d="m29.074219 57.585938h325.136719v377.472656h-325.136719zm0 0" fill="#f7e352"/><path d="m29.070312 57.582031h25.105469v377.476563h-25.105469zm0 0" fill="#f4be53"/><path d="m329.101562 57.582031h25.109376v377.476563h-25.109376zm0 0" fill="#fced95"/><path d="m274.378906 249.332031h-165.476562c-5.820313 0-10.539063 4.71875-10.539063 10.539063v106.664062c0 5.820313 4.71875 10.539063 10.539063 10.539063h165.476562c5.824219 0 10.542969-4.71875 10.542969-10.539063v-106.660156c0-5.824219-4.71875-10.542969-10.542969-10.542969zm0 0" fill="#fff6e3"/><path d="m268.175781 249.332031h-40.554687v-47.984375c0-19.839844-16.140625-35.976562-35.980469-35.976562-19.835937 0-35.976563 16.136718-35.976563 35.976562v47.984375h-40.554687v-47.984375c0-42.199218 34.332031-76.53125 76.53125-76.53125 42.203125 0 76.535156 34.332032 76.535156 76.53125zm0 0" fill="#405968"/><path d="m196.953125 125.019531c-1.757813-.121093-3.523437-.203125-5.3125-.203125-42.199219 0-76.53125 34.332032-76.53125 76.53125v47.984375h10.625v-47.984375c0-40.410156 31.492187-73.585937 71.21875-76.328125zm0 0" fill="#273c47"/><path d="m202.269531 165.371094c-1.808593 0-3.578125.136718-5.316406.394531 17.328125 2.578125 30.667969 17.550781 30.667969 35.582031v47.984375h10.625v-47.984375c0-19.835937-16.136719-35.976562-35.976563-35.976562zm0 0" fill="#273c47"/><path d="m220.308594 349.183594-17.515625-30.339844c6.664062-3.855469 11.152343-11.058594 11.152343-19.3125 0-12.320312-9.984374-22.304688-22.304687-22.304688-12.316406 0-22.304687 9.984376-22.304687 22.304688 0 8.253906 4.488281 15.457031 11.152343 19.3125l-17.515625 30.339844zm0 0" fill="#273c47"/><path d="m216.746094 41.003906c4.199218 0 7.605468-3.402344 7.605468-7.601562 0-4.199219-3.40625-7.605469-7.605468-7.605469h-50.207032c-4.199218 0-7.605468 3.40625-7.605468 7.605469 0 4.199218 3.40625 7.601562 7.605468 7.601562zm0 0"/><path d="m216.746094 460.050781h-50.207032c-4.199218 0-7.605468 3.402344-7.605468 7.601563 0 4.199218 3.40625 7.605468 7.605468 7.605468h50.207032c4.199218 0 7.605468-3.40625 7.605468-7.605468 0-4.199219-3.40625-7.601563-7.605468-7.601563zm0 0"/><path d="m361.816406 50.027344v-9.894532c0-22.128906-18.003906-40.132812-40.132812-40.132812h-208.617188c-4.199218 0-7.601562 3.40625-7.601562 7.605469s3.402344 7.601562 7.601562 7.601562h208.617188c13.746094 0 24.925781 11.183594 24.925781 24.925781v9.84375h-309.929687v-9.84375c0-13.742187 11.179687-24.925781 24.921874-24.925781h21.050782c4.199218 0 7.601562-3.402343 7.601562-7.601562s-3.402344-7.605469-7.601562-7.605469h-21.050782c-22.128906 0-40.132812 18.003906-40.132812 40.132812v9.894532c-11.960938.742187-21.46875 10.703125-21.46875 22.851562v31.507813c0 12.144531 9.503906 22.105469 21.464844 22.847656v2.066406c-11.960938.746094-21.464844 10.707031-21.464844 22.851563v31.507812c0 12.144532 9.503906 22.105469 21.464844 22.851563v228.542969c0 .027343.003906.050781.003906.078124v36.738282c0 22.128906 18.003906 40.128906 40.132812 40.128906h260.082032c22.128906 0 40.132812-18.003906 40.132812-40.128906v-313.988282c11.960938-.742187 21.464844-10.703124 21.464844-22.847656v-62.15625c0-12.144531-9.503906-22.105468-21.464844-22.851562zm-15.207031 15.160156v362.261719h-309.929687v-362.261719zm-331.402344 39.199219v-31.507813c0-3.75 2.699219-6.886718 6.257813-7.558594v46.621094c-3.558594-.671875-6.257813-3.804687-6.257813-7.554687zm0 79.273437v-31.507812c0-3.75 2.699219-6.882813 6.257813-7.558594v46.621094c-3.558594-.671875-6.257813-3.804688-6.257813-7.554688zm306.476563 313.132813h-260.082032c-13.742187 0-24.921874-11.183594-24.921874-24.925781v-29.210938h309.929687v29.210938c0 13.742187-11.179687 24.925781-24.925781 24.925781zm46.390625-361.757813c0 3.75-2.699219 6.882813-6.257813 7.558594v-77.273438c3.558594.675782 6.257813 3.808594 6.257813 7.558594zm0 0"/><path d="m108.902344 384.679688h124.398437c4.199219 0 7.601563-3.402344 7.601563-7.601563s-3.402344-7.605469-7.601563-7.605469h-124.398437c-1.621094 0-2.9375-1.316406-2.9375-2.9375v-106.660156c0-1.621094 1.320312-2.941406 2.9375-2.941406h165.476562c1.621094 0 2.9375 1.320312 2.9375 2.941406v106.660156c0 1.621094-1.316406 2.9375-2.9375 2.9375h-10.660156c-4.203125 0-7.605469 3.40625-7.605469 7.605469s3.402344 7.601563 7.605469 7.601563h10.660156c10.007813 0 18.144532-8.140626 18.144532-18.144532v-106.660156c0-9.535156-7.394532-17.359375-16.746094-18.078125v-40.449219c0-46.390625-37.742188-84.136718-84.136719-84.136718-46.390625 0-84.136719 37.746093-84.136719 84.136718v40.449219c-9.351562.71875-16.746094 8.542969-16.746094 18.078125v106.660156c0 10.003906 8.140626 18.144532 18.144532 18.144532zm111.113281-142.953126h-56.75v-40.378906c0-15.644531 12.730469-28.375 28.375-28.375s28.375 12.730469 28.375 28.375zm-97.300781-40.378906c0-38.003906 30.917968-68.925781 68.925781-68.925781s68.929687 30.921875 68.929687 68.925781v40.378906h-25.347656v-40.378906c0-24.03125-19.550781-43.582031-43.582031-43.582031s-43.582031 19.550781-43.582031 43.582031v40.378906h-25.34375zm0 0"/><path d="m156.390625 352.984375c1.355469 2.351563 3.867187 3.804687 6.582031 3.804687h57.335938c2.71875 0 5.226562-1.453124 6.585937-3.804687s1.359375-5.25 0-7.601563l-14.210937-24.613281c5.589844-5.554687 8.867187-13.191406 8.867187-21.238281 0-16.496094-13.417969-29.910156-29.910156-29.910156s-29.910156 13.414062-29.910156 29.910156c0 8.046875 3.28125 15.683594 8.867187 21.238281l-14.207031 24.613281c-1.359375 2.351563-1.359375 5.25 0 7.601563zm27.910156-40.722656c-4.539062-2.625-7.359375-7.503907-7.359375-12.730469 0-8.109375 6.59375-14.703125 14.699219-14.703125s14.703125 6.59375 14.703125 14.703125c0 5.226562-2.820312 10.105469-7.359375 12.730469-3.632813 2.101562-4.875 6.75-2.777344 10.386719l10.929688 18.929687h-30.992188l10.929688-18.929687c2.101562-3.636719.855469-8.285157-2.773438-10.386719zm0 0"/></svg>