<?xml version="1.0" encoding="UTF-8" standalone="no"?>
<!-- Created with Inkscape (http://www.inkscape.org/) -->

<svg
   xmlns:dc="http://purl.org/dc/elements/1.1/"
   xmlns:cc="http://creativecommons.org/ns#"
   xmlns:rdf="http://www.w3.org/1999/02/22-rdf-syntax-ns#"
   xmlns:svg="http://www.w3.org/2000/svg"
   xmlns="http://www.w3.org/2000/svg"
   xmlns:sodipodi="http://sodipodi.sourceforge.net/DTD/sodipodi-0.dtd"
   xmlns:inkscape="http://www.inkscape.org/namespaces/inkscape"
   width="370.61755"
   height="367.08972"
   id="svg2"
   version="1.1"
   inkscape:version="0.48.1 "
   sodipodi:docname="Capsule_Corp Logo.svg">
  <defs
     id="defs4" />
  <sodipodi:namedview
     id="base"
     pagecolor="#ffffff"
     bordercolor="#666666"
     borderopacity="1.0"
     inkscape:pageopacity="0.0"
     inkscape:pageshadow="2"
     inkscape:zoom="1.4"
     inkscape:cx="274.87576"
     inkscape:cy="150.46502"
     inkscape:document-units="px"
     inkscape:current-layer="layer1"
     showgrid="false"
     fit-margin-top="1"
     fit-margin-left="1"
     fit-margin-right="1"
     fit-margin-bottom="1"
     inkscape:window-width="1920"
     inkscape:window-height="996"
     inkscape:window-x="-8"
     inkscape:window-y="-8"
     inkscape:window-maximized="1" />
  <metadata
     id="metadata7">
    <rdf:RDF>
      <cc:Work
         rdf:about="">
        <dc:format>image/svg+xml</dc:format>
        <dc:type
           rdf:resource="http://purl.org/dc/dcmitype/StillImage" />
        <dc:title />
      </cc:Work>
    </rdf:RDF>
  </metadata>
  <g
     inkscape:label="Calque 1"
     inkscape:groupmode="layer"
     id="layer1"
     transform="translate(-187.77135,-370.16561)">
    <g
       id="g3044">
      <path
         inkscape:connector-curvature="0"
         d="m 504.73266,587.71164 c 10.39917,-20.70557 15.88501,-43.76831 15.88501,-67.07398 0,-82.41943 -67.05323,-149.47205 -149.47265,-149.47205 -82.41883,0 -149.47083,67.05262 -149.47083,149.47205 0,23.44849 5.54809,46.63574 16.06933,67.4353 0,0 -48.97217,32.64772 -48.97217,32.64772 0,0 2.59522,4.9768 2.59522,4.9768 35.56641,68.19458 105.39185,110.55786 182.22961,110.55786 75.82643,0 145.22339,-41.55029 181.1084,-108.43506 0,0 2.68433,-5.00488 2.68433,-5.00488 0,0 -52.65625,-35.10376 -52.65625,-35.10376 z"
         style="fill:#000000;fill-opacity:1;fill-rule:nonzero;stroke:none"
         id="path3019" />
      <path
         inkscape:connector-curvature="0"
         d="m 488.39111,591.80221 c 0,0 2.77953,-5.03296 2.77953,-5.03296 0.0342,-0.0623 0.0659,-0.1245 0.0989,-0.18676 0,0 3.63891,-5.45776 3.63891,-5.45776 0,0 -0.81178,10e-4 -0.81178,10e-4 9.21509,-18.71705 14.07594,-39.49219 14.07594,-60.48829 0,-75.52612 -61.44531,-136.97143 -136.97266,-136.97143 -75.52613,0 -136.97083,61.44531 -136.97083,136.97143 0,21.13404 4.92188,42.03003 14.2511,60.83863 0,0 -0.78857,10e-4 -0.78857,10e-4 0,0 3.63159,5.44799 3.63159,5.44799 0.033,0.0599 0.0635,0.12088 0.097,0.18066 0,0 2.80273,5.04029 2.80273,5.04029 -4.20655,2.80396 -41.55456,27.70264 -48.96118,32.64039 34.14733,61.14867 98.10058,98.9685 168.38928,98.9685 69.31763,0 132.82715,-37.04345 167.24732,-96.94824 -7.6001,-5.06592 -48.07129,-32.04712 -52.50733,-35.00489 z"
         style="fill:#ffffff;fill-opacity:1;fill-rule:nonzero;stroke:none"
         id="path3021" />
      <path
         inkscape:connector-curvature="0"
         d="m 488.39111,591.80221 c 0,0 2.77953,-5.03296 2.77953,-5.03296 0.0342,-0.0623 0.0659,-0.1245 0.0989,-0.18676 0,0 3.63891,-5.45776 3.63891,-5.45776 0,0 -0.81178,10e-4 -0.81178,10e-4 9.21509,-18.71705 14.07594,-39.49219 14.07594,-60.48829 0,-75.52612 -61.44531,-136.97143 -136.97266,-136.97143 -75.52613,0 -136.97083,61.44531 -136.97083,136.97143 0,21.13404 4.92188,42.03003 14.2511,60.83863 0,0 -0.78857,10e-4 -0.78857,10e-4 0,0 3.63159,5.44799 3.63159,5.44799 0.033,0.0599 0.0635,0.12088 0.097,0.18066 0,0 2.80273,5.04029 2.80273,5.04029 -4.20655,2.80396 -41.55456,27.70264 -48.96118,32.64039 34.14733,61.14867 98.10058,98.9685 168.38928,98.9685 69.31763,0 132.82715,-37.04345 167.24732,-96.94824 -7.6001,-5.06592 -48.07129,-32.04712 -52.50733,-35.00489 z"
         style="fill:#ffffff;fill-opacity:1;fill-rule:nonzero;stroke:none"
         id="path3023" />
      <path
         inkscape:connector-curvature="0"
         d="m 370.84715,665.03098 c -45.48217,0 -85.9143,-21.58814 -111.63146,-55.0708 0,0 -30.04395,20.0293 -30.04395,20.0293 32.07154,44.95238 84.6521,74.26391 144.08265,74.26391 59.21753,0 111.63208,-29.10645 143.73413,-73.78663 0,0 -33.24708,-22.1643 -33.24708,-22.1643 -25.64452,34.42749 -66.66381,56.72852 -112.89429,56.72852 z"
         style="fill:#000000;fill-opacity:1;fill-rule:nonzero;stroke:none"
         id="path3025" />
      <path
         inkscape:connector-curvature="0"
         d="m 372.82837,623.65769 c -52.88514,0 -95.75624,-42.87233 -95.75624,-95.75563 0,-52.8833 42.8711,-95.755 95.75624,-95.755 49.72777,0 90.59204,37.90955 95.29296,86.4032 0,0 20.99731,0 20.99731,0 -4.57885,-60.0116 -54.7229,-107.28027 -115.9082,-107.28027 -64.20349,0 -116.25061,52.04711 -116.25061,116.25 0,64.20287 52.04712,116.25 116.25061,116.25 61.61743,0 112.02759,-47.93945 115.98999,-108.55346 0,0 -20.92408,0 -20.92408,0 -3.74022,49.46166 -45.02685,88.44116 -95.44798,88.44116 z"
         style="fill:#000000;fill-opacity:1;fill-rule:nonzero;stroke:none"
         id="path3027" />
      <path
         inkscape:connector-curvature="0"
         d="m 372.27783,583.01071 c -30.13184,0 -54.55872,-24.42627 -54.55872,-54.55688 0,-30.13062 24.42688,-54.5581 54.55872,-54.5581 26.74682,0 48.98315,19.25415 53.64379,44.65453 0,0 18.29956,0 18.29956,0 -5.00244,-35.4773 -35.46875,-62.77466 -72.32787,-62.77466 -40.35157,0 -73.06397,32.71119 -73.06397,73.06275 0,40.35156 32.7124,73.06396 73.06397,73.06396 38.2019,0 69.53491,-29.32374 72.76854,-66.68578 0,0 -18.25927,0 -18.25927,0 -3.33252,26.93725 -26.2854,47.79418 -54.12475,47.79418 z"
         style="fill:#000000;fill-opacity:1;fill-rule:nonzero;stroke:none"
         id="path3029" />
      <path
         inkscape:connector-curvature="0"
         d="m 257.49267,640.49363 c 0,0 3.39905,6.4624 3.39905,6.4624 -1.81519,0.9967 -3.58033,1.57897 -5.29419,1.74682 -1.71388,0.16906 -3.35816,-0.058 -4.93286,-0.6781 -1.57472,-0.62072 -3.18786,-1.76209 -4.83948,-3.42407 -2.00501,-2.01783 -3.33496,-3.94227 -3.98926,-5.77515 -0.65491,-1.83289 -0.66773,-3.91297 -0.039,-6.23718 0.62866,-2.32666 2.15271,-4.57947 4.57214,-6.76026 3.22571,-2.90526 6.51612,-4.32311 9.87183,-4.25109 3.35572,0.0707 6.51794,1.60034 9.4873,4.5874 2.323,2.33764 3.65295,4.62219 3.98987,6.85364 0.33692,2.23144 -0.20019,4.599 -1.6101,7.10082 0,0 -6.21644,-3.99657 -6.21644,-3.99657 0.41749,-0.71229 0.66772,-1.28846 0.75013,-1.73035 0.14159,-0.73732 0.10562,-1.44836 -0.10738,-2.13624 -0.21301,-0.68664 -0.60485,-1.31835 -1.17493,-1.89209 -1.2915,-1.29943 -2.83081,-1.79931 -4.61731,-1.50146 -1.33543,0.21119 -2.87657,1.10413 -4.62219,2.67761 -2.16247,1.94764 -3.33435,3.59619 -3.51562,4.94263 -0.18189,1.34766 0.28931,2.58606 1.41357,3.71704 1.09009,1.0962 2.23755,1.63391 3.44239,1.61195 1.20483,-0.0208 2.54883,-0.46022 4.03259,-1.31775 z"
         style="fill:#ffffff;fill-opacity:1;fill-rule:nonzero;stroke:none"
         id="path3031" />
      <path
         inkscape:connector-curvature="0"
         d="m 274.44335,655.35385 c 0,0 3.64135,-8.96363 3.64135,-8.96363 0,0 -8.28612,5.47913 -8.28612,5.47913 0,0 4.64477,3.4845 4.64477,3.4845 z m -2.22535,5.36438 c 0,0 -7.42065,-5.56458 -7.42065,-5.56458 0,0 -3.76281,2.54761 -3.76281,2.54761 0,0 -6.65894,-4.99511 -6.65894,-4.99511 0,0 24.53492,-14.13086 24.53492,-14.13086 0,0 7.10448,5.3302 7.10448,5.3302 0,0 -8.68652,26.01745 -8.68652,26.01745 0,0 -6.81701,-5.11353 -6.81701,-5.11353 0,0 1.70653,-4.09118 1.70653,-4.09118 z"
         style="fill:#ffffff;fill-opacity:1;fill-rule:nonzero;stroke:none"
         id="path3033" />
      <path
         inkscape:connector-curvature="0"
         d="m 293.31908,661.52816 c 0,0 1.76575,0.96132 1.76575,0.96132 1.38916,0.75561 2.50244,1.05651 3.33985,0.90331 0.8374,-0.1532 1.47155,-0.58899 1.90246,-1.30676 0.41809,-0.69581 0.52856,-1.41907 0.33203,-2.1698 -0.19714,-0.74952 -0.96924,-1.49109 -2.31568,-2.22413 0,0 -2.052,-1.11571 -2.052,-1.11571 0,0 -2.97241,4.95177 -2.97241,4.95177 z m -1.55639,-13.40392 c 0,0 11.97815,6.51794 11.97815,6.51794 2.60864,1.41907 4.20838,3.07251 4.79796,4.96093 0.5896,1.88844 0.23073,3.92335 -1.07787,6.10353 -1.34583,2.2406 -3.10546,3.60717 -5.27833,4.09972 -2.17346,0.49134 -4.71312,-0.0531 -7.61839,-1.6333 0,0 -3.94471,-2.146 -3.94471,-2.146 0,0 -4.94507,8.23793 -4.94507,8.23793 0,0 -7.23816,-3.93739 -7.23816,-3.93739 0,0 13.32642,-22.20336 13.32642,-22.20336 z"
         style="fill:#ffffff;fill-opacity:1;fill-rule:nonzero;stroke:none"
         id="path3035" />
      <path
         inkscape:connector-curvature="0"
         d="m 302.71423,673.83164 c 0,0 7.53601,2.27234 7.53601,2.27234 -0.30335,1.1969 -0.33142,2.18261 -0.0836,2.95837 0.40405,1.25793 1.34582,2.16003 2.82531,2.70508 1.10353,0.4071 2.05445,0.47302 2.85279,0.2008 0.79772,-0.27283 1.32874,-0.73487 1.59362,-1.38428 0.25087,-0.61706 0.19105,-1.27441 -0.17943,-1.97205 -0.3711,-0.69762 -1.50452,-1.64367 -3.39906,-2.84057 -3.09692,-1.9757 -5.12328,-3.83179 -6.0791,-5.56702 -0.96801,-1.73827 -1.07299,-3.54003 -0.31493,-5.40466 0.49743,-1.22436 1.34032,-2.24244 2.52868,-3.05847 1.18774,-0.8136 2.65686,-1.25672 4.40674,-1.32752 1.74988,-0.072 3.92821,0.3717 6.53443,1.33179 3.19762,1.17859 5.40587,2.64465 6.62413,4.39575 1.21827,1.75049 1.48438,3.91908 0.79895,6.50696 0,0 -7.45483,-2.27966 -7.45483,-2.27966 0.24292,-1.14441 0.1532,-2.0752 -0.26916,-2.79052 -0.42237,-0.71595 -1.17921,-1.27503 -2.27173,-1.67848 -0.89966,-0.32959 -1.65039,-0.39855 -2.25281,-0.20324 -0.60303,0.19532 -1.00952,0.55298 -1.2207,1.07239 -0.15441,0.37903 -0.10563,0.7904 0.1471,1.2323 0.23558,0.4486 0.98143,1.06018 2.23755,1.8341 3.09814,1.93786 5.23376,3.53271 6.40807,4.78089 1.17372,1.24816 1.87989,2.52257 2.11854,3.81714 0.23803,1.297 0.0934,2.5946 -0.43519,3.89526 -0.62134,1.5271 -1.63757,2.77221 -3.04931,3.73535 -1.41236,0.9613 -3.05054,1.48376 -4.91455,1.5625 -1.86401,0.0794 -4.00819,-0.32776 -6.43189,-1.22193 -4.25658,-1.5686 -6.88721,-3.43506 -7.89185,-5.59813 -1.00463,-2.16432 -1.12548,-4.48975 -0.36376,-6.97449 z"
         style="fill:#ffffff;fill-opacity:1;fill-rule:nonzero;stroke:none"
         id="path3037" />
      <path
         inkscape:connector-curvature="0"
         d="m 347.30345,669.15695 c 0,0 8.1128,1.57776 8.1128,1.57776 0,0 -3.20312,14.93408 -3.20312,14.93408 -0.31739,1.48194 -0.85938,2.83386 -1.62598,4.05396 -0.76659,1.22253 -1.77491,2.22411 -3.02002,3.01086 -1.24756,0.78246 -2.48046,1.26343 -3.70361,1.44165 -1.69921,0.25024 -3.65479,0.16235 -5.86914,-0.26856 -1.2793,-0.24901 -2.6587,-0.60669 -4.13575,-1.07177 -1.47705,-0.46509 -2.66968,-1.05103 -3.57788,-1.75477 -0.90881,-0.70433 -1.68457,-1.60643 -2.32788,-2.70323 -0.6433,-1.09987 -1.0144,-2.17347 -1.11267,-3.22633 -0.16113,-1.6925 -0.10925,-3.15308 0.15503,-4.38415 0,0 3.20251,-14.93409 3.20251,-14.93409 0,0 8.11401,1.57533 8.11401,1.57533 0,0 -3.2788,15.2948 -3.2788,15.2948 -0.29541,1.36657 -0.12696,2.51342 0.50537,3.43689 0.62988,0.92407 1.65283,1.52282 3.06397,1.79687 1.39893,0.27344 2.57813,0.108 3.53759,-0.49622 0.95704,-0.60242 1.58692,-1.59912 1.88477,-2.9895 0,0 3.2788,-15.29358 3.2788,-15.29358 z"
         style="fill:#ffffff;fill-opacity:1;fill-rule:nonzero;stroke:none"
         id="path3039" />
      <path
         inkscape:connector-curvature="0"
         d="m 355.09887,670.47165 c 0,0 8.28613,0.29968 8.28613,0.29968 0,0 -0.7666,19.24317 -0.7666,19.24317 0,0 12.93213,0.46691 12.93213,0.46691 0,0 -0.24902,6.28663 -0.24902,6.28663 0,0 -21.21827,-0.7666 -21.21827,-0.7666 0,0 1.01563,-25.52979 1.01563,-25.52979 z"
         style="fill:#ffffff;fill-opacity:1;fill-rule:nonzero;stroke:none"
         id="path3041" />
      <path
         inkscape:connector-curvature="0"
         d="m 374.58618,671.2474 c 0,0 22.08984,-2.36327 22.08984,-2.36327 0,0 0.64208,5.42175 0.64208,5.42175 0,0 -13.83056,1.47948 -13.83056,1.47948 0,0 0.47852,4.03627 0.47852,4.03627 0,0 12.82714,-1.37208 12.82714,-1.37208 0,0 0.61036,5.18005 0.61036,5.18005 0,0 -12.82715,1.37208 -12.82715,1.37208 0,0 0.59082,5.00671 0.59082,5.00671 0,0 14.22851,-1.52221 14.22851,-1.52221 0,0 0.67871,5.75133 0.67871,5.75133 0,0 -22.49023,2.40723 -22.49023,2.40723 0,0 -2.99804,-25.39734 -2.99804,-25.39734 z"
         style="fill:#ffffff;fill-opacity:1;fill-rule:nonzero;stroke:none"
         id="path3043" />
      <path
         inkscape:connector-curvature="0"
         d="m 426.92261,675.67856 c 0,0 7.58056,-0.35096 7.58056,-0.35096 0.22461,1.98486 0.0707,3.75611 -0.45899,5.31739 -0.52979,1.56066 -1.41112,2.90161 -2.64404,4.0216 -1.23291,1.12061 -2.98096,2.06482 -5.24658,2.83142 -2.74658,0.9314 -5.13428,1.31104 -7.1582,1.14137 -2.02637,-0.16968 -4.03077,-0.99977 -6.01074,-2.48476 -1.97999,-1.48803 -3.52784,-3.72374 -4.646,-6.71325 -1.48927,-3.98254 -1.521,-7.42187 -0.0976,-10.31554 1.42579,-2.89308 4.17236,-5.02869 8.24219,-6.40809 3.1836,-1.07849 5.91554,-1.31348 8.1958,-0.7074 2.28027,0.60914 4.33594,2.03309 6.17187,4.27307 0,0 -6.35253,3.79823 -6.35253,3.79823 -0.51514,-0.65125 -0.96679,-1.1023 -1.35987,-1.35255 -0.64941,-0.42053 -1.34765,-0.67688 -2.09472,-0.77026 -0.74708,-0.0904 -1.51123,-0.004 -2.29248,0.26062 -1.77002,0.59936 -2.8711,1.73706 -3.30811,3.41431 -0.33447,1.24817 -0.10012,2.94983 0.70558,5.10559 0.99852,2.6709 2.10692,4.3573 3.32762,5.0592 1.22071,0.7019 2.60255,0.79285 4.14308,0.26978 1.49414,-0.50659 2.47313,-1.28784 2.93945,-2.34558 0.46631,-1.05714 0.58594,-2.40601 0.36377,-4.04419 z"
         style="fill:#ffffff;fill-opacity:1;fill-rule:nonzero;stroke:none"
         id="path3045" />
      <path
         inkscape:connector-curvature="0"
         d="m 440.49193,667.19894 c 1.3379,2.24305 2.73682,3.61572 4.19679,4.1211 1.45996,0.50597 2.94434,0.35095 4.45067,-0.46509 1.54785,-0.83863 2.4585,-1.96595 2.73438,-3.38624 0.27589,-1.41783 -0.32959,-3.36913 -1.81396,-5.85326 -1.24757,-2.08924 -2.60254,-3.37769 -4.06494,-3.8617 -1.45997,-0.48461 -2.94923,-0.31677 -4.46534,0.50538 -1.45264,0.78552 -2.32666,1.90856 -2.62206,3.36365 -0.29541,1.45751 0.23192,3.3142 1.58446,5.57616 z m -7.22411,3.87269 c -2.16553,-3.62367 -2.79053,-7.02027 -1.87745,-10.18799 0.91553,-3.16895 3.26416,-5.77759 7.05078,-7.82899 3.88184,-2.10144 7.46338,-2.72888 10.74952,-1.88293 3.28368,0.84655 5.99608,3.05664 8.12989,6.63147 1.55028,2.59461 2.36327,4.97253 2.43896,7.12891 0.0756,2.15759 -0.47853,4.16809 -1.66017,6.03149 -1.18163,1.8628 -3.06639,3.49426 -5.65429,4.89623 -2.62939,1.42518 -5.04394,2.20582 -7.24365,2.3407 -2.20216,0.13673 -4.35303,-0.36987 -6.45508,-1.5155 -2.10205,-1.14685 -3.92823,-3.01757 -5.47851,-5.6134 z"
         style="fill:#ffffff;fill-opacity:1;fill-rule:nonzero;stroke:none"
         id="path3047" />
      <path
         inkscape:connector-curvature="0"
         d="m 463.85131,649.81186 c 0,0 2.71484,-2.10083 2.71484,-2.10083 0.29297,-0.22828 0.78369,-0.75805 1.47462,-1.5924 0.35643,-0.41078 0.52733,-0.88807 0.51268,-1.43007 -0.0146,-0.54321 -0.20751,-1.03027 -0.57861,-1.46422 -0.54687,-0.64026 -1.1792,-0.9668 -1.89941,-0.9784 -0.71778,-0.014 -1.66504,0.43457 -2.83935,1.3446 0,0 -2.82715,2.18934 -2.82715,2.18934 0,0 3.44237,4.03198 3.44237,4.03198 z m 3.61328,16.80359 c 0,0 -16.94336,-19.83337 -16.94336,-19.83337 0,0 10.72999,-8.30628 10.72999,-8.30628 1.98974,-1.54114 3.64746,-2.55676 4.97559,-3.04626 1.33056,-0.48951 2.69286,-0.54383 4.08691,-0.16358 1.39647,0.38147 2.63184,1.20239 3.71094,2.4646 0.93993,1.10108 1.5039,2.23999 1.69433,3.4204 0.18799,1.1786 0.0635,2.35169 -0.37353,3.51503 -0.28077,0.74157 -0.81055,1.5863 -1.58937,2.53479 0.97413,-0.34974 1.74317,-0.54078 2.29982,-0.56824 0.37597,-0.0214 1.01562,0.0604 1.92138,0.24352 0.90332,0.18373 1.55518,0.36134 1.95313,0.53223 0,0 8.0249,3.34046 8.0249,3.34046 0,0 -7.27539,5.63476 -7.27539,5.63476 0,0 -8.61817,-3.39905 -8.61817,-3.39905 -1.10595,-0.44677 -1.9287,-0.65551 -2.4707,-0.62743 -0.7251,0.0538 -1.38184,0.307 -1.97022,0.76293 0,0 -0.56641,0.43945 -0.56641,0.43945 0,0 6.875,8.04933 6.875,8.04933 0,0 -6.46484,5.00671 -6.46484,5.00671 z"
         style="fill:#ffffff;fill-opacity:1;fill-rule:nonzero;stroke:none"
         id="path3049" />
      <path
         inkscape:connector-curvature="0"
         d="m 483.71216,633.28903 c 0,0 1.37451,-1.42455 1.37451,-1.42455 1.08153,-1.12184 1.63573,-2.08802 1.66504,-2.89918 0.0292,-0.81116 -0.27589,-1.49597 -0.91553,-2.05322 -0.62013,-0.54322 -1.33545,-0.80567 -2.14844,-0.78979 -0.81055,0.0165 -1.74072,0.56884 -2.78809,1.65526 0,0 -1.59668,1.65589 -1.59668,1.65589 0,0 4.40918,3.85559 4.40918,3.85559 z m -14.0625,-1.52649 c 0,0 9.32372,-9.66675 9.32372,-9.66675 2.03125,-2.10631 4.07715,-3.22449 6.14014,-3.35205 2.06299,-0.13 4.06739,0.6543 6.0083,2.35168 1.99707,1.74562 3.00537,3.68043 3.0249,5.80567 0.022,2.12586 -1.09863,4.35975 -3.35938,6.70532 0,0 -3.07128,3.1842 -3.07128,3.1842 0,0 7.33642,6.41296 7.33642,6.41296 0,0 -5.63232,5.84168 -5.63232,5.84168 0,0 -19.7705,-17.28271 -19.7705,-17.28271 z"
         style="fill:#ffffff;fill-opacity:1;fill-rule:nonzero;stroke:none"
         id="path3051" />
      <path
         inkscape:connector-curvature="0"
         d="m 496.50756,631.00265 c 0,0 5.01221,-5.89232 5.01221,-5.89232 0,0 5.80566,4.4757 5.80566,4.4757 0,0 -5.0122,5.89356 -5.0122,5.89356 0,0 -5.80567,-4.47694 -5.80567,-4.47694 z"
         style="fill:#ffffff;fill-opacity:1;fill-rule:nonzero;stroke:none"
         id="path3053" />
    </g>
  </g>
</svg>
