<svg width="140" height="130" viewBox="0 0 140 130" fill="none" xmlns="http://www.w3.org/2000/svg">
<g clip-path="url(#clip0)">
<path d="M131.778 1.10632L78.0039 41.0451L87.9481 17.4818L131.778 1.10632Z" fill="#E2761B" stroke="#E2761B" stroke-linecap="round" stroke-linejoin="round"/>
<path d="M7.63812 1.10632L60.9799 41.4234L51.5222 17.4818L7.63812 1.10632Z" fill="#E4761B" stroke="#E4761B" stroke-linecap="round" stroke-linejoin="round"/>
<path d="M112.43 93.6843L98.1085 115.626L128.752 124.057L137.561 94.1707L112.43 93.6843Z" fill="#E4761B" stroke="#E4761B" stroke-linecap="round" stroke-linejoin="round"/>
<path d="M1.96344 94.1707L10.7186 124.057L41.3618 115.626L27.04 93.6843L1.96344 94.1707Z" fill="#E4761B" stroke="#E4761B" stroke-linecap="round" stroke-linejoin="round"/>
<path d="M39.6324 56.6099L31.0934 69.5266L61.5204 70.8777L60.4395 38.1808L39.6324 56.6099Z" fill="#E4761B" stroke="#E4761B" stroke-linecap="round" stroke-linejoin="round"/>
<path d="M99.7838 56.6099L78.7065 37.8025L78.0039 70.8777L108.377 69.5266L99.7838 56.6099Z" fill="#E4761B" stroke="#E4761B" stroke-linecap="round" stroke-linejoin="round"/>
<path d="M41.3618 115.626L59.6288 106.709L43.8479 94.387L41.3618 115.626Z" fill="#E4761B" stroke="#E4761B" stroke-linecap="round" stroke-linejoin="round"/>
<path d="M79.7874 106.709L98.1084 115.626L95.5683 94.387L79.7874 106.709Z" fill="#E4761B" stroke="#E4761B" stroke-linecap="round" stroke-linejoin="round"/>
<path d="M98.1084 115.626L79.7873 106.709L81.2465 118.653L81.0844 123.679L98.1084 115.626Z" fill="#D7C1B3" stroke="#D7C1B3" stroke-linecap="round" stroke-linejoin="round"/>
<path d="M41.3618 115.626L58.3857 123.679L58.2777 118.653L59.6288 106.709L41.3618 115.626Z" fill="#D7C1B3" stroke="#D7C1B3" stroke-linecap="round" stroke-linejoin="round"/>
<path d="M58.6559 86.4965L43.4154 82.0108L54.1702 77.0928L58.6559 86.4965Z" fill="#233447" stroke="#233447" stroke-linecap="round" stroke-linejoin="round"/>
<path d="M80.7602 86.4965L85.2459 77.0928L96.0548 82.0108L80.7602 86.4965Z" fill="#233447" stroke="#233447" stroke-linecap="round" stroke-linejoin="round"/>
<path d="M41.3618 115.626L43.9559 93.6843L27.04 94.1707L41.3618 115.626Z" fill="#CD6116" stroke="#CD6116" stroke-linecap="round" stroke-linejoin="round"/>
<path d="M95.5143 93.6843L98.1084 115.626L112.43 94.1707L95.5143 93.6843Z" fill="#CD6116" stroke="#CD6116" stroke-linecap="round" stroke-linejoin="round"/>
<path d="M108.377 69.5265L78.0039 70.8776L80.8142 86.4964L85.2999 77.0927L96.1088 82.0107L108.377 69.5265Z" fill="#CD6116" stroke="#CD6116" stroke-linecap="round" stroke-linejoin="round"/>
<path d="M43.4155 82.0107L54.2244 77.0927L58.656 86.4964L61.5204 70.8776L31.0934 69.5265L43.4155 82.0107Z" fill="#CD6116" stroke="#CD6116" stroke-linecap="round" stroke-linejoin="round"/>
<path d="M31.0933 69.5265L43.8478 94.3869L43.4154 82.0107L31.0933 69.5265Z" fill="#E4751F" stroke="#E4751F" stroke-linecap="round" stroke-linejoin="round"/>
<path d="M96.1087 82.0107L95.5682 94.3869L108.377 69.5265L96.1087 82.0107Z" fill="#E4751F" stroke="#E4751F" stroke-linecap="round" stroke-linejoin="round"/>
<path d="M61.5203 70.8776L58.6559 86.4964L62.2229 104.926L63.0335 80.6596L61.5203 70.8776Z" fill="#E4751F" stroke="#E4751F" stroke-linecap="round" stroke-linejoin="round"/>
<path d="M78.0038 70.8776L76.5446 80.6056L77.1932 104.926L80.8141 86.4964L78.0038 70.8776Z" fill="#E4751F" stroke="#E4751F" stroke-linecap="round" stroke-linejoin="round"/>
<path d="M80.8142 86.4964L77.1932 104.926L79.7874 106.709L95.5683 94.3869L96.1088 82.0107L80.8142 86.4964Z" fill="#F6851B" stroke="#F6851B" stroke-linecap="round" stroke-linejoin="round"/>
<path d="M43.4154 82.0107L43.8478 94.3869L59.6287 106.709L62.2229 104.926L58.6559 86.4964L43.4154 82.0107Z" fill="#F6851B" stroke="#F6851B" stroke-linecap="round" stroke-linejoin="round"/>
<path d="M81.0844 123.679L81.2465 118.653L79.8954 117.464H59.5207L58.2776 118.653L58.3857 123.679L41.3618 115.626L47.3066 120.49L59.3585 128.867H80.0575L92.1635 120.49L98.1084 115.626L81.0844 123.679Z" fill="#C0AD9E" stroke="#C0AD9E" stroke-linecap="round" stroke-linejoin="round"/>
<path d="M79.7873 106.709L77.1932 104.926H62.2229L59.6288 106.709L58.2776 118.653L59.5207 117.464H79.8954L81.2465 118.653L79.7873 106.709Z" fill="#161616" stroke="#161616" stroke-linecap="round" stroke-linejoin="round"/>
<path d="M134.048 43.6393L138.642 21.5891L131.778 1.10632L79.7873 39.694L99.7837 56.6099L128.049 64.8787L134.318 57.5827L131.616 55.6371L135.939 51.6919L132.589 49.0977L136.912 45.801L134.048 43.6393Z" fill="#763D16" stroke="#763D16" stroke-linecap="round" stroke-linejoin="round"/>
<path d="M0.828125 21.5887L5.4219 43.6388L2.5035 45.8005L6.82705 49.0973L3.53034 51.6914L7.8539 55.6366L5.15168 57.5822L11.3668 64.8782L39.632 56.6094L59.6284 39.6935L7.63772 1.10583L0.828125 21.5887Z" fill="#763D16" stroke="#763D16" stroke-linecap="round" stroke-linejoin="round"/>
<path d="M128.049 64.8787L99.7838 56.6099L108.377 69.5265L95.5683 94.3869L112.43 94.1707H137.561L128.049 64.8787Z" fill="#F6851B" stroke="#F6851B" stroke-linecap="round" stroke-linejoin="round"/>
<path d="M39.6324 56.6099L11.3672 64.8787L1.96344 94.1707H27.04L43.8479 94.3869L31.0934 69.5265L39.6324 56.6099Z" fill="#F6851B" stroke="#F6851B" stroke-linecap="round" stroke-linejoin="round"/>
<path d="M78.0038 70.8775L79.7873 39.6939L88.002 17.4817H51.5221L59.6288 39.6939L61.5203 70.8775L62.1688 80.7136L62.2229 104.926H77.1932L77.3013 80.7136L78.0038 70.8775Z" fill="#F6851B" stroke="#F6851B" stroke-linecap="round" stroke-linejoin="round"/>
</g>
<defs>
<clipPath id="clip0">
<rect width="139.47" height="130" fill="white"/>
</clipPath>
</defs>
</svg>
