<svg width="50" height="50" viewBox="0 0 50 50" fill="none" xmlns="http://www.w3.org/2000/svg">
<path d="M24.9998 1.74104C12.1543 1.74104 1.74207 12.1543 1.74207 24.9987C1.74207 37.8432 12.1553 48.2564 24.9998 48.2564C37.8442 48.2564 48.2575 37.8432 48.2575 24.9987C48.2575 12.1543 37.8457 1.74104 24.9998 1.74104ZM24.9998 39.6156C17.1372 39.6156 10.3961 33.2418 10.3961 25.3772C10.3961 23.5308 10.7472 21.3996 11.3872 19.7807L17.6607 22.4531C17.6404 22.5407 17.6146 22.6557 17.5857 22.785C17.398 23.3969 17.2875 24.03 17.2568 24.6694C17.2433 24.7961 17.2385 24.9236 17.2426 25.0509C17.2426 25.0803 17.2467 25.1092 17.2482 25.1386C17.2621 26.2922 17.5348 27.4279 18.0462 28.462C18.5576 29.4961 19.2946 30.4022 20.2029 31.1135C21.1112 31.8248 22.1676 32.3231 23.2941 32.5717C24.4207 32.8202 25.5887 32.8127 26.7119 32.5496L30.2781 38.6053C28.599 39.275 26.8075 39.6179 24.9998 39.6156V39.6156ZM38.4781 30.7838L22.5514 24.0355L32.766 23.9909C32.3992 20.2859 28.5913 17.274 25.0003 17.274C24.1859 17.2733 23.3771 17.4083 22.6071 17.6733L19.0729 11.6729C20.9329 10.8207 22.9553 10.381 25.0013 10.3839C32.8638 10.3839 39.5832 16.8758 39.5832 24.7383C39.5817 26.8594 39.3081 28.9754 38.4766 30.7838H38.4781Z" fill="black"/>
</svg>
