<?xml version="1.0" encoding="UTF-8"?>
<svg xmlns="http://www.w3.org/2000/svg" xmlns:xlink="http://www.w3.org/1999/xlink" width="512" height="512" viewBox="0 0 60 60" version="1.1"><!-- Generator: Sketch 51.3 (57544) - http://www.bohemiancoding.com/sketch --><title>046 - USB</title><desc>Created with Sketch.</desc><defs/><g id="Page-1" stroke="none" stroke-width="1" fill="none" fill-rule="evenodd"><g id="046---USB" fill-rule="nonzero"><path d="M42.72,29.88 L29.88,42.72 C29.313013,43.288648 28.5430161,43.6082512 27.74,43.6082512 C26.9369839,43.6082512 26.166987,43.288648 25.6,42.72 L24.88,42 L23.46,40.58 L2.77,19.89 C0.410170938,17.5245866 0.410170938,13.6954134 2.77,11.33 L11.33,2.77 C11.43,2.67 11.54,2.57 11.65,2.48 C14.0464926,0.397383536 17.6458474,0.52405986 19.89,2.77 L42.72,25.6 C43.8999145,26.7827067 43.8999145,28.6972933 42.72,29.88 Z" id="Shape" fill="#0377BC"/><path d="M39.72,31.28 L27.41,43.59 C26.7252437,43.5144184 26.086753,43.2075195 25.6,42.72 L24.88,42 L23.46,40.58 L2.77,19.89 C0.410170938,17.5245866 0.410170938,13.6954134 2.77,11.33 L11.33,2.77 C11.43,2.67 11.54,2.57 11.65,2.48 C13.5652974,2.163423 15.5158271,2.78878367 16.89,4.16 L39.72,27 C40.8999145,28.1827067 40.8999145,30.0972933 39.72,31.28 Z" id="Shape" fill="#02A9F4"/><path d="M58.41,48.42 L54.84,52 L54.13,52.7 L53.42,53.41 L48.42,58.41 C48.0427539,58.7892262 47.5299085,59.0024405 46.995,59.0024405 C46.4600915,59.0024405 45.9472461,58.7892262 45.57,58.41 L29.88,42.72 L36.31,36.3 L37.02,35.59 L37.72,34.88 L42.72,29.88 L58.41,45.57 C58.7892262,45.9472461 59.0024405,46.4600915 59.0024405,46.995 C59.0024405,47.5299085 58.7892262,48.0427539 58.41,48.42 Z" id="Shape" fill="#707070"/><path d="M55.41,48.42 L51.84,52 L51.13,52.7 L50.42,53.41 L45.5,58.34 L29.88,42.72 L36.31,36.3 L37.02,35.59 L37.72,34.88 L41.22,31.38 L55.41,45.57 C55.7892262,45.9472461 56.0024405,46.4600915 56.0024405,46.995 C56.0024405,47.5299085 55.7892262,48.0427539 55.41,48.42 Z" id="Shape" fill="#9E9E9E"/><path d="M27.737,44.6 C26.669428,44.6014216 25.6452683,44.1775073 24.891,43.422 L2.065,20.6 C-0.685210142,17.8440863 -0.685210142,13.3819137 2.065,10.626 L10.625,2.066 C13.3809137,-0.684210142 17.8430863,-0.684210142 20.599,2.066 L43.424,24.891 C44.9937454,26.4644346 44.9937454,29.0115654 43.424,30.585 L30.585,43.424 C29.8298514,44.1791718 28.8049552,44.6023733 27.737,44.6 Z M15.612,2 C14.2719447,1.99744653 12.98611,2.52898246 12.039,3.477 L3.479,12.037 C1.51010117,14.0121399 1.51010117,17.2078601 3.479,19.183 L26.305,42.01 C27.0969788,42.8000837 28.3790212,42.8000837 29.171,42.01 L42.01,29.171 C42.8000837,28.3790212 42.8000837,27.0969788 42.01,26.305 L19.185,3.479 C18.2380305,2.53053009 16.9522774,1.9983082 15.612,2 Z" id="Shape" fill="#000000"/><path d="M24.171,42.29 C23.7666041,42.2899137 23.4020659,42.0462725 23.247322,41.6726546 C23.0925781,41.2990366 23.1780921,40.8689943 23.464,40.583 L25.604,38.443 C25.9944653,38.0522586 26.6277585,38.0520347 27.0185,38.4425 C27.4092414,38.8329653 27.4094653,39.4662585 27.019,39.857 L24.878,42 C24.6900172,42.1864497 24.435765,42.2907399 24.171,42.29 Z" id="Shape" fill="#000000"/><path d="M29.164,37.3 C28.7596041,37.2999137 28.3950659,37.0562725 28.240322,36.6826546 C28.0855781,36.3090366 28.1710921,35.8789943 28.457,35.593 L40.583,23.464 C40.8355868,23.2108773 41.2040259,23.1117358 41.54953,23.203921 C41.895034,23.2961062 42.1651127,23.5656131 42.25803,23.910921 C42.3509472,24.2562289 42.2525868,24.6248773 42,24.878 L29.871,37 C29.6846594,37.1901191 29.4302038,37.2980918 29.164,37.3 Z" id="Shape" fill="#000000"/><path d="M27.024,30.041 C25.5847033,30.0403714 24.346272,29.0231448 24.0660504,27.6113901 C23.7858289,26.1996354 24.5418586,24.786525 25.8718007,24.2362256 C27.2017428,23.6859262 28.7352097,24.1516958 29.5344324,25.3486998 C30.3336551,26.5457037 30.1760507,28.1405777 29.158,29.158 C28.592999,29.725311 27.824664,30.0432303 27.024,30.041 Z M27.024,26.007 C26.5384262,26.0062053 26.1198851,26.3484687 26.0242665,26.8245356 C25.9286479,27.3006025 26.1825728,27.7779315 26.6307954,27.9646909 C27.079018,28.1514504 27.5967491,27.9956447 27.8674557,27.5925311 C28.1381623,27.1894176 28.0864772,26.6512266 27.744,26.307 C27.5537905,26.114717 27.2944668,26.0066655 27.024,26.007 Z" id="Shape" fill="#000000"/><path d="M16.325,27.9 C14.8867367,27.8980226 13.6501248,26.8804174 13.3713307,25.4694323 C13.0925366,24.0584471 13.8491954,22.6469951 15.1786235,22.0981543 C16.5080516,21.5493136 18.0400468,22.0159183 18.837821,23.2126478 C19.6355951,24.4093774 19.4769943,26.0029818 18.459,27.019 C17.8925441,27.5838907 17.1249832,27.9007703 16.325,27.9 Z M16.325,23.867 C15.8394262,23.8662053 15.4208851,24.2084687 15.3252665,24.6845356 C15.2296479,25.1606025 15.4835728,25.6379315 15.9317954,25.8246909 C16.380018,26.0114504 16.8977491,25.8556447 17.1684557,25.4525311 C17.4391623,25.0494176 17.3874772,24.5112266 17.045,24.167 C16.8543483,23.9753745 16.5953113,23.8674424 16.325,23.867 Z" id="Shape" fill="#000000"/><path d="M27.737,22.2 C26.5169494,22.1997241 25.4171552,21.464659 24.9502994,20.3374637 C24.4834436,19.2102684 24.7414318,17.912844 25.604,17.05 C26.7974175,15.9087819 28.6775825,15.9087819 29.871,17.05 C30.7336968,17.9129727 30.9916215,19.2106395 30.5245092,20.3379255 C30.0573969,21.4652116 28.9572326,22.2001285 27.737,22.2 Z M27.737,18.166 C27.3258881,18.1659355 26.9552548,18.4136297 26.7980526,18.7934987 C26.6408503,19.1733677 26.7280655,19.6105347 27.019,19.901 C27.420706,20.2867945 28.055294,20.2867945 28.457,19.901 C28.7478812,19.6100158 28.834778,19.1724336 28.6771535,18.7923834 C28.519529,18.4123331 28.1484408,18.1646986 27.737,18.165 L27.737,18.166 Z" id="Shape" fill="#000000"/><path d="M25.6,26.6 C25.3348052,26.5999434 25.0804927,26.4945494 24.893,26.307 L11.339,12.753 C11.0790434,12.5019255 10.9747874,12.1301221 11.0663028,11.7804927 C11.1578183,11.4308632 11.4308632,11.1578183 11.7804927,11.0663028 C12.1301221,10.9747874 12.5019255,11.0790434 12.753,11.339 L26.305,24.891 C26.5920828,25.1765476 26.6786356,25.6070346 26.524223,25.9813483 C26.3698104,26.3556619 26.0049123,26.5999156 25.6,26.6 Z" id="Shape" fill="#000000"/><path d="M26.312,18.752 C26.0464587,18.7522088 25.7917377,18.6467946 25.604,18.459 L23.757,16.612 L15.612,16.612 C15.0597153,16.612 14.612,16.1642847 14.612,15.612 C14.612,15.0597153 15.0597153,14.612 15.612,14.612 L24.171,14.612 C24.4361948,14.6120566 24.6905073,14.7174506 24.878,14.905 L27.019,17.045 C27.3049079,17.3309943 27.3904219,17.7610366 27.235678,18.1346546 C27.0809341,18.5082725 26.7163959,18.7519137 26.312,18.752 Z" id="Shape" fill="#000000"/><path d="M14.9,24.458 C14.6348052,24.4579434 14.3804927,24.3525494 14.193,24.165 L12.054,22.025 C11.8664506,21.8375073 11.7610566,21.5831948 11.761,21.318 L11.761,12.759 C11.761,12.2067153 12.2087153,11.759 12.761,11.759 C13.3132847,11.759 13.761,12.2067153 13.761,12.759 L13.761,20.9 L15.607,22.747 C15.8929079,23.0329943 15.9784219,23.4630366 15.823678,23.8366546 C15.6689341,24.2102725 15.3043959,24.4539137 14.9,24.454 L14.9,24.458 Z" id="Shape" fill="#000000"/><path d="M47,60 C46.1991916,60.0019656 45.4308362,59.6836778 44.866,59.116 L29.171,43.424 C28.7806181,43.0335001 28.7806181,42.4004999 29.171,42.01 L42.01,29.171 C42.4004999,28.7806181 43.0335001,28.7806181 43.424,29.171 L59.116,44.863 C59.6818944,45.4288102 59.9998177,46.196264 59.9998177,46.9965 C59.9998177,47.796736 59.6818944,48.5641898 59.116,49.13 L49.13,59.116 C48.5665198,59.6832572 47.7995551,60.0015656 47,60 Z M31.3,42.717 L46.277,57.7 C46.6794554,58.084893 47.3135446,58.084893 47.716,57.7 L57.7,47.716 C57.8908917,47.5254161 57.9981595,47.2667441 57.9981595,46.997 C57.9981595,46.7272559 57.8908917,46.4685839 57.7,46.278 L42.717,31.292 L31.3,42.717 Z" id="Shape" fill="#000000"/><path d="M54.129,53.7 C53.8638052,53.6999434 53.6094927,53.5945494 53.422,53.407 L49.855,49.841 C49.4646181,49.4505001 49.4646181,48.8174999 49.855,48.427 L50.575,47.707 L49.137,46.268 L48.417,46.987 C48.0265001,47.3773819 47.3934999,47.3773819 47.003,46.987 L43.437,43.421 C43.0466181,43.0305001 43.0466181,42.3974999 43.437,42.007 L44.156,41.287 L42.717,39.849 L42,40.57 C41.6095001,40.9603819 40.9764999,40.9603819 40.586,40.57 L36.3,36.291 C35.9210278,35.8986211 35.9264476,35.2749152 36.3121814,34.8891814 C36.6979152,34.5034476 37.3216211,34.4980278 37.714,34.877 L41.286,38.449 L42.006,37.73 C42.3964999,37.3396181 43.0295001,37.3396181 43.42,37.73 L46.273,40.583 C46.6633819,40.9734999 46.6633819,41.6065001 46.273,41.997 L45.554,42.717 L47.706,44.869 L48.426,44.149 C48.6134927,43.9614506 48.8678052,43.8560566 49.133,43.856 C49.3981948,43.8560566 49.6525073,43.9614506 49.84,44.149 L52.7,47 C53.0903819,47.3904999 53.0903819,48.0235001 52.7,48.414 L51.981,49.134 L54.836,52 C55.1219079,52.2859943 55.2074219,52.7160366 55.052678,53.0896546 C54.8979341,53.4632725 54.5333959,53.7069137 54.129,53.707 L54.129,53.7 Z" id="Shape" fill="#000000"/><path d="M47,55.129 C46.5956041,55.1289137 46.2310659,54.8852725 46.076322,54.5116546 C45.9215781,54.1380366 46.0070921,53.7079943 46.293,53.422 L47.716,52 C48.1110525,51.6458377 48.7139298,51.66185 49.0896257,52.0364831 C49.4653217,52.4111163 49.4830417,53.0139458 49.13,53.41 L47.7,54.836 C47.5142258,55.021844 47.2627669,55.1270976 47,55.129 Z" id="Shape" fill="#000000"/></g></g></svg>
