<svg width="18" height="26" viewBox="0 0 18 26" fill="none" xmlns="http://www.w3.org/2000/svg">
<path d="M8.7283 0C5.25452 0 2.44323 2.8113 2.44323 6.28511V8.64071C1.22337 8.86154 0 9.15598 0 9.53808V21.8313C0 21.8313 0 22.1714 0.382083 22.3326C1.7667 22.8934 7.21401 24.8214 8.46542 25.2631C8.62665 25.3227 8.67222 25.3227 8.71429 25.3227C8.77387 25.3227 8.80192 25.3227 8.96317 25.2631C10.2146 24.8214 15.6759 22.8934 17.0606 22.3326C17.4146 22.1854 17.4286 21.8454 17.4286 21.8454V9.53808C17.4286 9.15598 16.2228 8.84751 14.9994 8.64071V6.28511C15.017 2.8113 12.1881 0 8.7283 0ZM8.7283 3.00409C10.7754 3.00409 12.0128 4.24148 12.0128 6.28862V8.33574C9.71682 8.17449 7.75733 8.17449 5.44731 8.33574V6.28862C5.44731 4.23798 6.68469 3.00409 8.7283 3.00409ZM8.71429 11.3503C11.5711 11.3503 13.9688 11.5712 13.9688 11.9673V19.6369C13.9688 19.7562 13.9548 19.7702 13.8496 19.8123C13.748 19.8579 8.97718 21.579 8.97718 21.579C8.97718 21.579 8.7844 21.6385 8.7283 21.6385C8.66873 21.6385 8.47944 21.5649 8.47944 21.5649C8.47944 21.5649 3.70866 19.8438 3.60701 19.7982C3.50535 19.7528 3.48782 19.7386 3.48782 19.623V11.9533C3.45978 11.5572 5.85744 11.3503 8.71429 11.3503Z" fill="black"/>
</svg>
