<svg width="60" height="17" viewBox="0 0 60 17" fill="none" xmlns="http://www.w3.org/2000/svg">
<g clip-path="url(#clip0)">
<path d="M5.81887 0C3.50301 0 1.62882 1.8742 1.62882 4.19007V5.76047C0.815577 5.90769 0 6.10399 0 6.35872V14.5542C0 14.5542 0 14.7809 0.254722 14.8884C1.1778 15.2623 4.80934 16.5476 5.64361 16.8421C5.7511 16.8818 5.78148 16.8818 5.80953 16.8818C5.84925 16.8818 5.86795 16.8818 5.97545 16.8421C6.80972 16.5476 10.4506 15.2623 11.3737 14.8884C11.6097 14.7903 11.6191 14.5636 11.6191 14.5636V6.35872C11.6191 6.10399 10.8152 5.89834 9.99958 5.76047V4.19007C10.0113 1.8742 8.12539 0 5.81887 0ZM5.81887 2.00273C7.18362 2.00273 8.00855 2.82765 8.00855 4.19241V5.55716C6.47788 5.44966 5.17155 5.44966 3.63154 5.55716V4.19241C3.63154 2.82532 4.45646 2.00273 5.81887 2.00273ZM5.80953 7.56689C7.7141 7.56689 9.31254 7.71412 9.31254 7.97819V13.0913C9.31254 13.1708 9.30319 13.1801 9.23308 13.2082C9.16531 13.2386 5.98479 14.386 5.98479 14.386C5.98479 14.386 5.85627 14.4257 5.81887 14.4257C5.77915 14.4257 5.65296 14.3766 5.65296 14.3766C5.65296 14.3766 2.47244 13.2292 2.40467 13.1988C2.3369 13.1685 2.32521 13.1591 2.32521 13.082V7.96884C2.30652 7.70477 3.90496 7.56689 5.80953 7.56689Z" fill="black"/>
<path d="M17.0234 13.161V7.56165H14.9775V5.55374H21.3564V7.56165H19.3306V13.161H17.0234Z" fill="black"/>
<path d="M26.5248 13.161L25.475 10.769H24.6397V13.161H22.3325V5.55374H26.393C28.1753 5.55374 29.1312 6.73526 29.1312 8.16023C29.1312 9.47352 28.3719 10.1681 27.7621 10.4674L29.1402 13.1588H26.5248V13.161ZM26.7973 8.16023C26.7973 7.74703 26.431 7.56835 26.0468 7.56835H24.6397V8.76997H26.0468C26.431 8.76104 26.7973 8.58236 26.7973 8.16023Z" fill="black"/>
<path d="M30.3418 13.161V5.55374H36.1109V7.56165H32.6401V8.31211H36.0261V10.32H32.6401V11.1553H36.1109V13.161H30.3418Z" fill="black"/>
<path d="M37.3105 13.17V11.3407L40.2096 7.5706H37.3105V5.56268H43.2472V7.37405L40.3392 11.1643H43.3321V13.1722L37.3105 13.17Z" fill="black"/>
<path d="M43.8945 9.37082C43.8945 7.03458 45.7059 5.43094 48.0601 5.43094C50.4053 5.43094 52.2256 7.02565 52.2256 9.37082C52.2256 11.707 50.4142 13.3018 48.0601 13.3018C45.7059 13.3018 43.8945 11.707 43.8945 9.37082ZM49.8804 9.37082C49.8804 8.30991 49.159 7.46565 48.0511 7.46565C46.9433 7.46565 46.2219 8.30991 46.2219 9.37082C46.2219 10.4317 46.9433 11.276 48.0511 11.276C49.1679 11.276 49.8804 10.4317 49.8804 9.37082Z" fill="black"/>
<path d="M57.3828 13.1699L56.333 10.7779H55.4977V13.1699H53.1904V5.56268H57.251C59.0334 5.56268 59.9893 6.7442 59.9893 8.16916C59.9893 9.48246 59.2299 10.1771 58.6202 10.4764L59.9983 13.1677H57.3828V13.1699ZM57.6642 8.16023C57.6642 7.74703 57.2979 7.56836 56.9137 7.56836H55.5066V8.76997H56.9137C57.3002 8.76104 57.6642 8.58236 57.6642 8.16023Z" fill="black"/>
</g>
<defs>
<clipPath id="clip0">
<rect width="60" height="16.8795" fill="white"/>
</clipPath>
</defs>
</svg>
